<?xml version="1.0" encoding="UTF-8"?>
<!DOCTYPE svg PUBLIC "-//W3C//DTD SVG 1.1//EN" "http://www.w3.org/Graphics/SVG/1.1/DTD/svg11.dtd">
<!-- Creator: CorelDRAW 2018 (64-Bit) -->
<svg xmlns="http://www.w3.org/2000/svg" xml:space="preserve" width="10in" height="9in" version="1.1" style="shape-rendering:geometricPrecision; text-rendering:geometricPrecision; image-rendering:optimizeQuality; fill-rule:evenodd; clip-rule:evenodd"
viewBox="0 0 10000 9000"
 xmlns:xlink="http://www.w3.org/1999/xlink">
 <defs>
  <style type="text/css">
   <![CDATA[
    .fil0 {fill:#FFFFFF}
   ]]>
  </style>
 </defs>
 <g id="Layer_x0020_1">
  <metadata id="CorelCorpID_0Corel-Layer"/>
  <path class="fil0" d="M2282.86 8928.79c-62.44,0 -114.48,-2.84 -156.11,-8.51 -53.93,-7.57 -102.66,-21.29 -146.18,-41.16 -5.68,-2.84 -13.96,-7.33 -24.83,-13.48 -10.88,-6.15 -20.11,-12.06 -27.68,-17.74 -31.22,-26.49 -56.77,-56.29 -76.63,-89.41 -16.09,-17.03 -30.75,-40.69 -44,-70.96 -25.54,-66.23 -38.32,-145.23 -38.32,-237 0,-107.86 22.24,-202.47 66.7,-283.84 38.79,-77.58 90.59,-138.37 155.4,-182.36 64.81,-44 138.37,-68.83 220.69,-74.51l17.03 -1.42 18.45 0c73.8,0 153.27,15.14 238.42,45.41 7.57,3.79 24.13,11.35 49.67,22.71 25.54,11.35 49.2,24.13 70.96,38.32l-25.54 184.49 -83.73 -21.29c-30.28,-7.57 -58.66,-11.35 -85.15,-11.35 -52.98,0 -92.72,19.87 -119.21,59.61 -28.39,41.63 -42.57,109.28 -42.57,202.94 0,30.28 1.42,51.56 4.26,63.86 3.78,59.61 17.03,103.6 39.74,131.98 21.76,24.6 47.78,36.9 78.06,36.9 28.39,0 60.08,-8.99 95.09,-26.96 30.28,-14.19 63.39,-33.59 99.34,-58.19l14.19 232.75c-36.9,34.06 -84.2,62.92 -141.92,86.57 -54.88,21.76 -106.91,32.64 -156.11,32.64zm719.53 -25.54c-59.61,0 -104.07,-0.94 -133.41,-2.84 -45.41,-1.89 -85.15,-7.57 -119.21,-17.03 -3.79,0 -7.57,-5.68 -11.35,-17.03 -2.84,-8.52 -4.26,-15.14 -4.26,-19.87l-26.96 -516.58 0 -28.39c0,-6.62 0.48,-18.45 1.42,-35.48 0.94,-17.03 1.42,-39.74 1.42,-68.12l2.84 -73.8c0,-18.92 0.48,-33.11 1.42,-42.57 0,-28.39 0.94,-55.82 2.84,-82.31 0,-8.52 0.24,-14.43 0.71,-17.74 0.47,-3.31 0.71,-5.44 0.71,-6.39 1.89,-0.94 5.44,-3.55 10.65,-7.8 5.2,-4.26 9.7,-7.81 13.48,-10.65 9.46,-8.52 23.18,-12.77 41.16,-12.77l82.31 0 22.71 0c9.46,0.94 26.96,1.42 52.51,1.42 27.44,0 49.67,0.47 66.7,1.42l65.28 0 52.51 0 21.29 0c24.6,0 41.16,3.78 49.67,11.35 11.35,8.52 17.03,25.07 17.03,49.67l0 14.19c0,3.78 -0.47,7.57 -1.42,11.35 -0.94,3.78 -1.42,7.57 -1.42,11.35l-2.84 22.7 -1.42 17.03c0,3.78 0.94,7.57 2.84,11.35 0.94,3.78 1.42,8.52 1.42,14.19 0,25.55 -0.47,44 -1.42,55.35l-1.42 58.19 36.9 0c12.3,2.84 25.54,4.26 39.74,4.26 18.92,1.89 32.17,2.84 39.74,2.84 8.52,1.89 21.29,2.84 38.32,2.84l1.42 -96.51c0.95,-8.51 1.42,-20.81 1.42,-36.9l1.42 -58.19 0 -11.35c0,-15.14 0.48,-28.62 1.42,-40.45 0.94,-11.82 2.84,-20.1 5.68,-24.83 5.68,-7.57 12.3,-11.35 19.87,-11.35 5.68,-1.89 18.93,-2.84 39.74,-2.84l38.31 -1.42c27.44,0 50.15,-0.94 68.12,-2.84l80.89 0c37.85,0 65.28,-0.47 82.31,-1.42 33.11,0 55.82,-0.48 68.12,-1.42l38.32 0c22.71,0 37.85,2.84 45.41,8.52 5.68,3.78 9.46,9.22 11.35,16.32 1.89,7.1 2.84,17.27 2.84,30.52 0,36.9 -0.94,86.57 -2.84,149.01 -3.78,60.55 -5.68,109.28 -5.68,146.18 0,5.68 0.94,10.41 2.84,14.19 0,3.78 0.47,6.86 1.42,9.22 0.95,2.37 1.42,4.02 1.42,4.96l-35.48 539.29c0,4.73 -3.31,11.35 -9.93,19.87 -8.52,8.52 -16.09,12.77 -22.71,12.77l-390.28 0c-2.84,0 -5.68,-2.37 -8.52,-7.09 -2.84,-4.73 -5.2,-10.88 -7.09,-18.45 -0.94,-4.73 -2.13,-11.11 -3.55,-19.16 -1.42,-8.04 -2.6,-18.21 -3.55,-30.51l-15.61 -262.55 -9.93 0c-25.54,0 -45.89,-0.47 -61.02,-1.42 -35.95,-1.89 -58.19,-2.84 -66.7,-2.84l-11.35 0c-8.52,0 -12.78,8.04 -12.78,24.13 0,117.32 -0.47,192.06 -1.42,224.23 0,7.57 -1.42,25.54 -4.26,53.93 -1.89,21.76 -9.94,35 -24.13,39.74l-21.29 1.42c-73.8,3.79 -125.36,6.15 -154.69,7.1zm1048.78 -7.1c-12.3,0 -20.81,-9.46 -25.55,-28.38 -0.94,-2.84 -1.42,-7.57 -1.42,-14.19 0,-9.46 1.89,-23.65 5.67,-42.57 1.89,-12.3 3.55,-22 4.97,-29.09 1.42,-7.09 2.6,-12.54 3.55,-16.32 28.39,-133.41 56.3,-250.72 83.73,-351.96l99.34 -448.46c0,-1.89 1.42,-4.73 4.26,-8.52 2.84,-3.78 6.15,-6.15 9.93,-7.09l7.09 0c0,0.94 1.42,1.42 4.26,1.42 11.35,0 24.13,-1.42 38.32,-4.26 14.19,-2.84 26.96,-4.26 38.31,-4.26 20.81,0 40.21,1.42 58.19,4.26 8.52,0 17.98,0.47 28.38,1.42 10.41,0.95 21.29,1.42 32.64,1.42 3.78,0 8.04,-0.94 12.77,-2.84l25.55 0 32.64 0 34.06 -1.42c6.62,-0.95 14.67,-1.42 24.13,-1.42 7.57,0 11.35,-0.47 11.35,-1.42l22.7 0 48.26 0 59.6 0c52.98,0 87.99,0.94 105.02,2.84 2.84,0 6.86,0.24 12.06,0.71 5.2,0.47 8.28,1.65 9.23,3.55 6.62,0 13.24,-0.47 19.87,-1.42 6.62,-0.94 12.77,-1.42 18.45,-1.42 13.25,-2.84 26.02,-4.26 38.32,-4.26 5.68,0 11.35,1.42 17.03,4.26 5.68,2.84 11.83,4.26 18.45,4.26l7.09 -1.42 4.26 0c2.84,1.89 5.91,4.49 9.22,7.81 3.31,3.31 4.96,5.91 4.96,7.8l99.35 448.46c30.28,110.7 57.71,228.02 82.31,351.96 0,5.68 1.89,11.83 5.68,18.45 0.94,6.62 2.37,15.61 4.26,26.96 1.89,11.35 2.84,20.81 2.84,28.39 0.95,3.78 1.42,8.99 1.42,15.61 0,13.24 -2.84,24.13 -8.52,32.64 -3.78,5.68 -9.46,8.51 -17.03,8.51l-18.45 0c-14.19,0 -25.07,-0.47 -32.64,-1.42l-36.9 0 -35.48 0 -28.38 0c-7.57,0 -11.35,-0.47 -11.35,-1.42l-89.41 0 0 -2.84c-3.78,-1.89 -8.52,-2.84 -14.19,-2.84 0,0 -0.24,0.24 -0.71,0.71 -0.47,0.47 -1.18,1.18 -2.13,2.13 0,1.89 -0.94,2.84 -2.84,2.84l-4.26 0 -11.35 0c-4.73,-1.89 -14.19,-2.84 -28.38,-2.84 -28.39,-1.89 -50.62,-2.84 -66.7,-2.84 -5.67,-8.52 -11.59,-25.55 -17.74,-51.09 -6.15,-25.55 -12.54,-53.93 -19.16,-85.15 -1.89,-15.14 -3.78,-25.54 -5.68,-31.22 -19.87,3.78 -45.89,5.68 -78.06,5.68l-43.99 0 -41.16 0 -9.93 45.41c-12.3,62.44 -22.24,101.24 -29.8,116.37 -3.79,0 -8.52,0.94 -14.19,2.84 -1.89,0.94 -3.55,1.65 -4.97,2.13 -1.42,0.47 -2.13,0.71 -2.13,0.71l-5.68 0c-5.68,0 -9.94,-0.95 -12.78,-2.84 -1.89,-1.89 -4.26,-2.84 -7.09,-2.84l-63.86 2.84 -22.71 0 -21.29 0c-3.78,1.89 -8.52,2.84 -14.19,2.84l-5.68 0 -130.56 0 -12.77 0c-10.41,0.94 -31.7,1.42 -63.87,1.42l-36.9 0c-7.57,0.94 -18.45,1.42 -32.64,1.42l-17.03 0zm655.66 -347.7c-6.62,-46.36 -9.93,-69.54 -9.93,-69.54 -2.84,-13.24 -7.57,-38.31 -14.19,-75.22 -1.89,-9.46 -6.62,-35 -14.19,-76.63 -7.57,-45.41 -11.35,-68.12 -11.35,-68.12 -2.84,-18.92 -5.68,-35.48 -8.52,-49.67l-1.42 -18.45c-2.84,-4.73 -4.26,-8.99 -4.26,-12.77l-1.42 -8.52c-0.94,1.89 -1.42,4.73 -1.42,8.52 0,3.78 -0.94,6.15 -2.84,7.09l0 5.68 -2.84 18.45c-0.94,6.62 -2.13,13.95 -3.55,22 -1.42,8.04 -3.07,16.79 -4.97,26.26l-7.09 39.74c-10.41,59.61 -16.56,94.14 -18.45,103.6 -0.95,10.41 -3.31,26.02 -7.1,46.83 -1.89,6.62 -3.78,16.56 -5.68,29.8l-11.35 65.28 72.38 0 9.93 -2.84 2.84 0c11.35,0 19.87,0.94 25.54,2.84 3.79,0 7.33,0.71 10.65,2.13 3.31,1.42 6.39,2.6 9.22,3.55zm814.61 347.7c-13.25,0 -23.18,-8.99 -29.8,-26.96 -14.19,-31.22 -21.29,-87.99 -21.29,-170.3 0,-79.48 1.42,-170.78 4.26,-273.91 0.94,-33.11 1.42,-84.2 1.42,-153.27l-4.26 -5.68 -157.53 0c-12.3,0 -22,-6.86 -29.09,-20.57 -7.1,-13.72 -12.54,-32.88 -16.32,-57.48 -4.73,-28.38 -7.09,-69.07 -7.09,-122.05l0 -19.87c0,-9.46 0.47,-17.03 1.42,-22.7l0 -21.29 0 -12.77c0,-5.68 2.84,-10.64 8.52,-14.9 5.68,-4.26 12.3,-7.33 19.87,-9.22 9.46,-2.84 23.65,-4.26 42.57,-4.26l107.86 0c23.65,0 41.63,0.47 53.93,1.42l52.51 1.42 510.91 0c36.9,0 61.02,0.47 72.38,1.42 4.73,0.94 11.35,1.89 19.87,2.84 8.51,0.94 14.66,2.84 18.45,5.68 6.62,2.84 10.64,6.39 12.06,10.65 1.42,4.26 2.13,10.64 2.13,19.16l0 234.17c0,10.41 -4.26,17.5 -12.77,21.29 -5.68,1.89 -13.24,2.84 -22.7,2.84l-45.42 0 -46.83 0c-21.76,0 -38.32,-0.94 -49.67,-2.84l-42.57 0c-8.52,0 -13.24,1.89 -14.19,5.68 0,0.94 -0.47,2.13 -1.42,3.55 -0.94,1.42 -1.42,3.07 -1.42,4.97l0 21.29 0 48.25c0,14.19 -0.47,25.07 -1.42,32.64 0,27.44 -1.89,87.52 -5.68,180.24l-2.84 42.57c-1.89,39.74 -3.78,68.59 -5.68,86.57l0 134.82c0,32.17 -6.62,52.51 -19.87,61.02 -12.3,4.73 -20.81,7.57 -25.55,8.52l-35.48 1.42c-36.9,0 -62.92,0.94 -78.06,2.84l-149.01 1.42c-18.93,0.94 -52.98,1.42 -102.18,1.42zm-3769.94 -868.18c0,0 -1.38,0 -4.13,0 -2.75,0 -5.04,0.92 -6.87,2.75l-8.25 2.75c-5.5,0 -8.25,-1.83 -8.25,-5.5 -7.33,-3.67 -11.91,-9.17 -13.75,-16.5 -64.15,-11 -105.39,-20.17 -123.72,-27.5l-96.23 -27.5 -13.75 0c-9.17,0 -16.5,-1.83 -22,-5.5 -16.5,0 -30.24,-1.83 -41.24,-5.5 -14.67,-1.83 -38.49,-8.25 -71.49,-19.24 -32.99,-11 -56.82,-19.25 -71.48,-24.75 -29.33,-9.17 -71.48,-24.74 -126.47,-46.74 -25.66,-11 -44.91,-18.33 -57.74,-22l-63.24 -38.49c-14.67,-11 -22,-21.99 -22,-32.99 0,-34.83 8.25,-71.48 24.74,-109.98 5.5,-12.83 13.29,-28.41 23.37,-46.74 10.08,-18.33 19.7,-39.41 28.87,-63.24 3.67,-11 13.75,-27.5 30.24,-49.49 43.99,-73.32 67.82,-113.64 71.48,-120.98 7.33,-20.16 11,-38.49 11,-54.99 0,-27.49 -14.67,-55.91 -43.99,-85.23 -27.5,-27.49 -41.24,-54.07 -41.24,-79.73 -9.17,0 -13.75,0.92 -13.75,2.75l-5.5 0 -2.75 0c-3.67,-3.67 -5.5,-7.33 -5.5,-11 -58.65,-73.32 -118.22,-162.22 -178.71,-266.7 -76.98,-120.98 -139.31,-230.95 -186.96,-329.93 -14.67,-22 -32.08,-61.4 -52.24,-118.22 -23.83,-49.49 -43.99,-99.9 -60.49,-151.22 -20.16,-56.82 -30.24,-93.48 -30.24,-109.98 0,-18.33 20.16,-42.16 60.49,-71.48 16.5,-11 35.74,-22 57.74,-32.99 22,-11 38.49,-19.25 49.49,-24.75 9.17,-1.83 47.66,-11.91 115.48,-30.24l38.49 -13.74c7.33,-5.5 15.58,-8.25 24.74,-8.25 11,0 28.41,-3.67 52.24,-11 53.15,-11 84.31,-18.33 93.48,-22l98.98 -22c54.99,-18.33 87.06,-28.41 96.23,-30.24l5.5 -2.75 8.25 0 5.5 0c38.49,0 64.15,9.17 76.98,27.5 11,11 29.33,36.66 54.99,76.98 3.67,11 10.54,23.83 20.62,38.49 10.08,14.66 16.95,23.83 20.62,27.49l22 30.24 19.25 22c7.33,9.17 14.66,20.16 21.99,32.99 7.33,12.83 15.58,26.58 24.75,41.24 47.66,84.31 84.31,143.89 109.98,178.71 16.5,23.83 30.24,35.74 41.24,35.74 5.5,0 14.67,-10.08 27.5,-30.24 16.5,-25.66 46.74,-84.32 90.73,-175.96 23.83,-58.66 52.24,-125.56 85.23,-200.71 16.5,-33 25.66,-53.16 27.49,-60.49 7.33,-32.99 15.58,-54.07 24.75,-63.24 9.16,-14.67 25.66,-22 49.49,-22 58.65,0 135.64,11.91 230.95,35.74 93.48,27.5 183.3,63.24 269.44,107.23 87.98,47.66 147.55,91.65 178.71,131.97 0,49.49 -11.91,95.31 -35.74,137.47l-252.94 558.14 -247.45 560.89 -11 2.75c-1.83,0 -4.58,1.83 -8.25,5.5 -120.98,236.45 -231.87,449.07 -332.68,637.87 -3.67,7.33 -14.67,11 -32.99,11l0 -16.5zm1028.29 -241.95c-23.83,0 -40.33,-18.33 -49.49,-54.99 -1.83,-5.5 -2.75,-14.66 -2.75,-27.49 0,-18.33 3.67,-45.83 11,-82.48 3.67,-23.83 6.87,-42.62 9.62,-56.36 2.75,-13.75 5.04,-24.29 6.87,-31.62 54.99,-258.45 109.06,-485.74 162.22,-681.86l192.46 -868.82c0,-3.67 2.75,-9.17 8.25,-16.5 5.5,-7.33 11.91,-11.91 19.24,-13.75l13.75 0c0,1.83 2.75,2.75 8.25,2.75 22,0 46.74,-2.75 74.24,-8.25 27.5,-5.5 52.24,-8.25 74.24,-8.25 40.32,0 77.9,2.75 112.72,8.25 16.5,0 34.83,0.91 54.99,2.75 20.17,1.83 41.24,2.75 63.24,2.75 7.33,0 15.58,-1.83 24.74,-5.5l49.49 0 63.24 0 65.99 -2.75c12.83,-1.83 28.41,-2.75 46.74,-2.75 14.67,0 22,-0.92 22,-2.75l43.99 0 93.48 0 115.48 0c102.65,0 170.46,1.83 203.46,5.5 5.5,0 13.29,0.46 23.37,1.37 10.08,0.92 16.04,3.21 17.87,6.87 12.83,0 25.66,-0.92 38.49,-2.75 12.83,-1.83 24.74,-2.75 35.74,-2.75 25.66,-5.5 50.41,-8.25 74.24,-8.25 11,0 22,2.75 32.99,8.25 11,5.5 22.91,8.25 35.74,8.25l13.75 -2.75 8.25 0c5.5,3.67 11.45,8.71 17.87,15.12 6.41,6.42 9.62,11.46 9.62,15.12l192.46 868.82c58.65,214.46 111.81,441.74 159.47,681.86 0,11 3.67,22.91 11,35.74 1.83,12.83 4.58,30.24 8.25,52.24 3.67,22 5.5,40.33 5.5,54.99 1.83,7.33 2.75,17.41 2.75,30.24 0,25.66 -5.5,46.74 -16.5,63.24 -7.33,11 -18.33,16.5 -32.99,16.5l-35.74 0c-27.49,0 -48.57,-0.91 -63.24,-2.75l-71.48 0 -68.74 0 -54.99 0c-14.67,0 -22,-0.92 -22,-2.75l-173.22 0 0 -5.5c-7.33,-3.67 -16.5,-5.5 -27.49,-5.5 0,0 -0.46,0.46 -1.37,1.37 -0.92,0.92 -2.29,2.29 -4.13,4.13 0,3.67 -1.83,5.5 -5.5,5.5l-8.25 0 -21.99 0c-9.17,-3.67 -27.5,-5.5 -54.99,-5.5 -54.99,-3.67 -98.06,-5.5 -129.22,-5.5 -11,-16.5 -22.46,-49.49 -34.37,-98.98 -11.91,-49.49 -24.29,-104.48 -37.12,-164.96 -3.67,-29.33 -7.33,-49.49 -11,-60.49 -38.49,7.33 -88.9,11 -151.22,11l-85.23 0 -79.73 0 -19.25 87.98c-23.83,120.98 -43.07,196.13 -57.74,225.45 -7.33,0 -16.5,1.83 -27.5,5.5 -3.67,1.83 -6.87,3.21 -9.62,4.12 -2.75,0.92 -4.12,1.38 -4.12,1.38l-11 0c-11,0 -19.24,-1.83 -24.74,-5.5 -3.67,-3.67 -8.25,-5.5 -13.75,-5.5l-123.72 5.5 -43.99 0 -41.24 0c-7.33,3.67 -16.5,5.5 -27.5,5.5l-11 0 -252.95 0 -24.74 0c-20.16,1.83 -61.41,2.75 -123.72,2.75l-71.48 0c-14.67,1.83 -35.74,2.75 -63.24,2.75l-32.99 0zm1270.24 -673.61c-12.83,-89.81 -19.24,-134.72 -19.24,-134.72 -5.5,-25.66 -14.67,-74.23 -27.5,-145.72 -3.67,-18.33 -12.83,-67.82 -27.5,-148.47 -14.66,-87.98 -21.99,-131.97 -21.99,-131.97 -5.5,-36.66 -11,-68.74 -16.5,-96.23l-2.75 -35.74c-5.5,-9.17 -8.25,-17.41 -8.25,-24.74l-2.75 -16.5c-1.83,3.67 -2.75,9.16 -2.75,16.5 0,7.33 -1.83,11.91 -5.5,13.74l0 11 -5.5 35.74c-1.83,12.83 -4.13,27.04 -6.87,42.61 -2.75,15.58 -5.96,32.54 -9.62,50.87l-13.75 76.98c-20.16,115.48 -32.08,182.38 -35.74,200.71 -1.83,20.16 -6.41,50.41 -13.75,90.73 -3.67,12.83 -7.33,32.07 -11,57.74l-22 126.47 140.22 0 19.25 -5.5 5.5 0c21.99,0 38.49,1.83 49.49,5.5 7.33,0 14.2,1.38 20.62,4.13 6.41,2.75 12.37,5.04 17.87,6.87zm2631.21 692.86c-11,-12.83 -16.5,-20.16 -16.5,-22l-288.69 -332.68c-5.5,-5.5 -14.66,-16.5 -27.49,-32.99 -12.83,-16.5 -24.74,-30.24 -35.74,-41.24l-41.24 -41.24c-12.83,-9.17 -21.08,-13.75 -24.74,-13.75 -7.33,0 -12.83,2.29 -16.5,6.87 -3.67,4.58 -5.5,9.62 -5.5,15.12l0 38.49 0 60.49c0,29.33 -1.83,52.24 -5.5,68.74l0 71.48c-1.83,16.5 -2.75,36.66 -2.75,60.49l0 35.74 0 41.24 0 11c0,18.33 -6.42,28.41 -19.25,30.24 -9.17,7.33 -22.91,9.17 -41.24,5.5 -95.31,3.67 -164.05,5.5 -206.21,5.5l-351.93 -2.75 -46.74 0 -54.99 0c-23.83,0 -40.33,-0.92 -49.49,-2.75l-19.25 0 -123.72 -11 -8.25 -21.99c-1.83,0 -2.75,-10.08 -2.75,-30.24 0,-31.16 -0.92,-57.74 -2.75,-79.74l0 -109.98c-3.67,-27.5 -5.5,-68.74 -5.5,-123.72l-5.5 -211.71c-1.83,-45.82 -6.42,-114.56 -13.75,-206.2l-2.75 -68.74c-3.67,-62.32 -5.5,-108.15 -5.5,-137.47l0 -27.5c3.67,-11 5.5,-27.49 5.5,-49.49 1.83,-23.83 2.75,-51.32 2.75,-82.48l-2.75 -54.99c0,-12.83 -0.92,-23.37 -2.75,-31.62 -1.83,-8.25 -2.75,-14.2 -2.75,-17.87 0,-3.67 0.92,-14.67 2.75,-33 1.83,-18.33 2.75,-36.66 2.75,-54.99 1.83,-22 2.75,-49.49 2.75,-82.48l0 -41.24 0 -54.99c-1.83,-31.16 -2.75,-76.98 -2.75,-137.47 -3.67,-12.83 -5.5,-31.16 -5.5,-54.99l0 -27.5c-5.5,-42.16 16.5,-66.9 65.99,-74.23 14.66,-5.5 35.74,-8.25 63.24,-8.25l60.49 0 305.19 0 225.46 0 145.72 0 87.98 0c25.66,0 41.24,15.58 46.74,46.74 1.83,5.5 2.75,17.41 2.75,35.74l0 41.24c0,45.82 -1.83,114.56 -5.5,206.21l-2.75 74.23c-3.67,47.66 -5.5,80.65 -5.5,98.98 21.99,0 42.16,-5.5 60.48,-16.5 12.83,-12.83 19.25,-19.25 19.25,-19.25 3.67,-1.83 7.79,-5.04 12.37,-9.62 4.58,-4.58 8.71,-8.7 12.37,-12.37 7.33,-3.67 24.74,-19.25 52.24,-46.74 45.82,-45.82 120.98,-116.39 225.45,-211.7 100.81,-95.31 179.63,-164.96 236.45,-208.96 34.83,-23.83 56.82,-36.66 65.98,-38.49 3.67,0 10.08,4.58 19.25,13.75 9.17,9.17 15.58,15.58 19.24,19.24 0,0 8.25,8.25 24.75,24.74 3.67,9.17 8.25,14.67 13.74,16.5l16.5 19.24c16.5,12.83 27.49,23.83 32.99,32.99l32.99 30.24c5.5,5.5 10.08,10.54 13.75,15.12 3.67,4.58 6.41,7.79 8.25,9.62 11,18.33 40.33,57.74 87.98,118.23 36.66,42.16 64.15,83.4 82.48,123.72l0 5.5c0,25.66 -25.66,65.98 -76.98,120.97l-60.49 60.49c-22,20.16 -37.57,35.74 -46.74,46.74 -1.83,0 -4.58,1.83 -8.25,5.5 -3.67,3.67 -8.25,8.25 -13.75,13.75l-109.98 85.23c0,0 -18.33,18.33 -54.99,54.99l-49.49 38.49c-3.67,1.83 -10.54,6.87 -20.62,15.12 -10.08,8.25 -18.79,13.29 -26.12,15.12 -5.5,3.67 -11.91,7.79 -19.24,12.37 -7.33,4.58 -11.91,8.71 -13.75,12.37 -3.67,1.83 -5.5,10.08 -5.5,24.74 0,29.33 14.67,56.82 43.99,82.48 12.83,14.67 25.66,25.66 38.49,32.99l38.49 33c38.49,38.49 57.74,57.74 57.74,57.74 36.66,31.16 102.65,90.73 197.96,178.71 73.32,65.99 131.06,125.56 173.22,178.71 18.33,27.5 27.49,47.66 27.49,60.49 0,11 -1.37,20.17 -4.12,27.5 -2.75,7.33 -8.71,15.58 -17.87,24.74 -36.66,31.16 -70.57,54.07 -101.73,68.74 -31.16,16.5 -61.4,37.12 -90.73,61.86 -29.33,24.74 -57.74,49.03 -85.24,72.86 -23.83,21.99 -51.32,42.16 -82.48,60.48l-54.99 27.5c0,0 -8.25,5.5 -24.75,16.5 -16.5,11 -28.41,20.16 -35.74,27.5 -27.5,16.5 -55.91,24.74 -85.23,24.74 -16.5,0 -33.91,-3.67 -52.24,-11l-38.49 -27.49zm-465.21 -5960.15c649.22,126.89 1204.35,-505.15 1149.26,261.54 -383.52,182.94 -958.32,422.54 -1393.45,42.65 -286.47,-250.12 -248.83,-932.87 -366.54,-1408.05 396.2,177.56 345.62,706.98 610.73,1103.85zm2816.79 297.26c881.97,-160.27 565.41,-594.02 804.13,-1547.28 -403.29,106.52 -274.74,759.62 -623.21,1084.49 -636.68,116.87 -840.44,-119.83 -1041.98,-563.24 -1227.6,-96.07 -1998.92,-614.29 -3025.51,-991.64 -608.16,-223.52 -1034.34,1096.5 -2309.5,1429.83 -415.25,108.55 -817.69,223.94 -1233.74,336.49 -723.19,195.67 -593.86,60.71 -916.46,648.64 -206.25,375.91 -388.81,677.92 -550.81,1017.81l484.51 -96.14 -332.89 984.67 439.21 -176.2 -125.39 1507.02 676.32 5.33c254.91,-330.54 460.67,-716.46 726.83,-1063.54l155.84 299.89 420.38 -208.8 91.81 216.28c1043.93,-473.87 624.89,-411.71 1678.74,-67.8 151.72,-77.82 98.27,-125.56 249.29,-211.47 73.87,121.78 183.37,231.86 278.31,303.24 202.43,152.17 83.43,85.98 259.67,-53.61l160.23 777.85 776.99 -4.02 224.52 -1330.03c171.21,100.01 125.99,108.07 250.75,186.95 91.15,-112.34 165.41,-283.5 221.75,-349.51 194.84,-228.22 52.31,-74.02 346.94,-49.39l183.85 -316.11c594.93,84.53 619.81,493.29 1297.11,-139.39 -11.31,-236.28 -168.47,-565.93 -157.47,-689.52 49.85,-560.27 93.06,382.6 57.22,-699.79l532.54 -240.99zm-2182.23 2275.76c-216.06,422.88 -291.22,341.99 -203.09,948.6 80.78,556.17 112.37,423.77 753.74,405 90.55,-395.37 -11.23,-978.02 -18.09,-1399.03 -271.57,89.44 -129.29,123.81 -308.23,124.52 -113.78,0.45 -21.27,-35.14 -224.32,-79.08zm-4726.81 1348.33c555.59,42.31 701.27,79.23 707.67,-592.8l-332.72 127.31c-141.48,-161.02 1.73,-89.59 -175.29,-190.83l-286.27 111.96 86.61 544.36z"/>
 </g>
</svg>
