<svg width="360" height="528" viewBox="0 0 360 528" fill="none" xmlns="http://www.w3.org/2000/svg">
<rect width="360" height="528" fill="white"/>
<rect width="360" height="47" fill="#1890FF"/>
<path d="M15.3732 23.2424L24.8627 14.5664C25.3204 14.1479 26.0623 14.1479 26.52 14.5664L27.6267 15.5783C28.0836 15.996 28.0845 16.673 27.6287 17.0917L20.1081 24L27.6287 30.9083C28.0845 31.327 28.0836 32.004 27.6267 32.4217L26.52 33.4336C26.0623 33.8521 25.3203 33.8521 24.8627 33.4336L15.3732 24.7577C14.9156 24.3392 14.9156 23.6608 15.3732 23.2424Z" fill="white"/>
<path d="M42.1729 24.9902V30H40.4854V17.2031H45.2051C46.6055 17.2031 47.7012 17.5605 48.4922 18.2754C49.2891 18.9902 49.6875 19.9365 49.6875 21.1143C49.6875 22.3564 49.2979 23.3145 48.5186 23.9883C47.7451 24.6562 46.6348 24.9902 45.1875 24.9902H42.1729ZM42.1729 23.6104H45.2051C46.1074 23.6104 46.7988 23.3994 47.2793 22.9775C47.7598 22.5498 48 21.9346 48 21.1318C48 20.3701 47.7598 19.7607 47.2793 19.3037C46.7988 18.8467 46.1396 18.6094 45.3018 18.5918H42.1729V23.6104ZM57.3516 30C57.2578 29.8125 57.1816 29.4785 57.123 28.998C56.3672 29.7832 55.4648 30.1758 54.416 30.1758C53.4785 30.1758 52.708 29.9121 52.1045 29.3848C51.5068 28.8516 51.208 28.1777 51.208 27.3633C51.208 26.373 51.583 25.6055 52.333 25.0605C53.0889 24.5098 54.1494 24.2344 55.5146 24.2344H57.0967V23.4873C57.0967 22.9189 56.9268 22.4678 56.5869 22.1338C56.2471 21.7939 55.7461 21.624 55.084 21.624C54.5039 21.624 54.0176 21.7705 53.625 22.0635C53.2324 22.3564 53.0361 22.7109 53.0361 23.127H51.4014C51.4014 22.6523 51.5684 22.1953 51.9023 21.7559C52.2422 21.3105 52.6992 20.959 53.2734 20.7012C53.8535 20.4434 54.4893 20.3145 55.1807 20.3145C56.2764 20.3145 57.1348 20.5898 57.7559 21.1406C58.377 21.6855 58.6992 22.4385 58.7227 23.3994V27.7764C58.7227 28.6494 58.834 29.3438 59.0566 29.8594V30H57.3516ZM54.6533 28.7607C55.1631 28.7607 55.6465 28.6289 56.1035 28.3652C56.5605 28.1016 56.8916 27.7588 57.0967 27.3369V25.3857H55.8223C53.8301 25.3857 52.834 25.9688 52.834 27.1348C52.834 27.6445 53.0039 28.043 53.3438 28.3301C53.6836 28.6172 54.1201 28.7607 54.6533 28.7607ZM64.2422 27.6182L66.457 20.4902H68.1973L64.374 31.4678C63.7822 33.0498 62.8418 33.8408 61.5527 33.8408L61.2451 33.8145L60.6387 33.7002V32.3818L61.0781 32.417C61.6289 32.417 62.0566 32.3057 62.3613 32.083C62.6719 31.8604 62.9268 31.4531 63.126 30.8613L63.4863 29.8945L60.0938 20.4902H61.8691L64.2422 27.6182ZM71.1855 20.4902L71.2295 21.5449C71.9268 20.7246 72.8672 20.3145 74.0508 20.3145C75.3809 20.3145 76.2861 20.8242 76.7666 21.8438C77.083 21.3867 77.4932 21.0176 77.9971 20.7363C78.5068 20.4551 79.1074 20.3145 79.7988 20.3145C81.8848 20.3145 82.9453 21.4189 82.9805 23.6279V30H81.3545V23.7246C81.3545 23.0449 81.1992 22.5381 80.8887 22.2041C80.5781 21.8643 80.0566 21.6943 79.3242 21.6943C78.7207 21.6943 78.2197 21.876 77.8213 22.2393C77.4229 22.5967 77.1914 23.0801 77.127 23.6895V30H75.4922V23.7686C75.4922 22.3857 74.8154 21.6943 73.4619 21.6943C72.3955 21.6943 71.666 22.1484 71.2734 23.0566V30H69.6475V20.4902H71.1855ZM89.3877 30.1758C88.0986 30.1758 87.0498 29.7539 86.2412 28.9102C85.4326 28.0605 85.0283 26.9268 85.0283 25.5088V25.21C85.0283 24.2666 85.207 23.4258 85.5645 22.6875C85.9277 21.9434 86.4316 21.3633 87.0762 20.9473C87.7266 20.5254 88.4297 20.3145 89.1855 20.3145C90.4219 20.3145 91.3828 20.7217 92.0684 21.5361C92.7539 22.3506 93.0967 23.5166 93.0967 25.0342V25.7109H86.6543C86.6777 26.6484 86.9502 27.4072 87.4717 27.9873C87.999 28.5615 88.667 28.8486 89.4756 28.8486C90.0498 28.8486 90.5361 28.7314 90.9346 28.4971C91.333 28.2627 91.6816 27.9521 91.9805 27.5654L92.9736 28.3389C92.1768 29.5635 90.9814 30.1758 89.3877 30.1758ZM89.1855 21.6504C88.5293 21.6504 87.9785 21.8906 87.5332 22.3711C87.0879 22.8457 86.8125 23.5137 86.707 24.375H91.4707V24.252C91.4238 23.4258 91.2012 22.7871 90.8027 22.3359C90.4043 21.8789 89.8652 21.6504 89.1855 21.6504ZM96.5244 20.4902L96.5771 21.6855C97.3037 20.7715 98.2529 20.3145 99.4248 20.3145C101.435 20.3145 102.448 21.4482 102.466 23.7158V30H100.84V23.707C100.834 23.0215 100.676 22.5146 100.365 22.1865C100.061 21.8584 99.583 21.6943 98.9326 21.6943C98.4053 21.6943 97.9424 21.835 97.5439 22.1162C97.1455 22.3975 96.835 22.7666 96.6123 23.2236V30H94.9863V20.4902H96.5244ZM107.124 18.1875V20.4902H108.899V21.7471H107.124V27.6445C107.124 28.0254 107.203 28.3125 107.361 28.5059C107.52 28.6934 107.789 28.7871 108.17 28.7871C108.357 28.7871 108.615 28.752 108.943 28.6816V30C108.516 30.1172 108.1 30.1758 107.695 30.1758C106.969 30.1758 106.421 29.9561 106.052 29.5166C105.683 29.0771 105.498 28.4531 105.498 27.6445V21.7471H103.767V20.4902H105.498V18.1875H107.124ZM117.706 17.2031L121.89 27.6445L126.073 17.2031H128.262V30H126.574V25.0166L126.732 19.6377L122.531 30H121.239L117.047 19.6641L117.214 25.0166V30H115.526V17.2031H117.706ZM134.933 30.1758C133.644 30.1758 132.595 29.7539 131.786 28.9102C130.978 28.0605 130.573 26.9268 130.573 25.5088V25.21C130.573 24.2666 130.752 23.4258 131.109 22.6875C131.473 21.9434 131.977 21.3633 132.621 20.9473C133.271 20.5254 133.975 20.3145 134.73 20.3145C135.967 20.3145 136.928 20.7217 137.613 21.5361C138.299 22.3506 138.642 23.5166 138.642 25.0342V25.7109H132.199C132.223 26.6484 132.495 27.4072 133.017 27.9873C133.544 28.5615 134.212 28.8486 135.021 28.8486C135.595 28.8486 136.081 28.7314 136.479 28.4971C136.878 28.2627 137.227 27.9521 137.525 27.5654L138.519 28.3389C137.722 29.5635 136.526 30.1758 134.933 30.1758ZM134.73 21.6504C134.074 21.6504 133.523 21.8906 133.078 22.3711C132.633 22.8457 132.357 23.5137 132.252 24.375H137.016V24.252C136.969 23.4258 136.746 22.7871 136.348 22.3359C135.949 21.8789 135.41 21.6504 134.73 21.6504ZM142.737 18.1875V20.4902H144.513V21.7471H142.737V27.6445C142.737 28.0254 142.816 28.3125 142.975 28.5059C143.133 28.6934 143.402 28.7871 143.783 28.7871C143.971 28.7871 144.229 28.752 144.557 28.6816V30C144.129 30.1172 143.713 30.1758 143.309 30.1758C142.582 30.1758 142.034 29.9561 141.665 29.5166C141.296 29.0771 141.111 28.4531 141.111 27.6445V21.7471H139.38V20.4902H141.111V18.1875H142.737ZM148.046 21.6416C148.767 20.7568 149.704 20.3145 150.858 20.3145C152.868 20.3145 153.882 21.4482 153.899 23.7158V30H152.273V23.707C152.268 23.0215 152.109 22.5146 151.799 22.1865C151.494 21.8584 151.017 21.6943 150.366 21.6943C149.839 21.6943 149.376 21.835 148.978 22.1162C148.579 22.3975 148.269 22.7666 148.046 23.2236V30H146.42V16.5H148.046V21.6416ZM155.903 25.1572C155.903 24.2256 156.085 23.3877 156.448 22.6436C156.817 21.8994 157.327 21.3252 157.978 20.9209C158.634 20.5166 159.381 20.3145 160.219 20.3145C161.514 20.3145 162.56 20.7627 163.356 21.6592C164.159 22.5557 164.561 23.748 164.561 25.2363V25.3506C164.561 26.2764 164.382 27.1084 164.024 27.8467C163.673 28.5791 163.166 29.1504 162.504 29.5605C161.848 29.9707 161.092 30.1758 160.236 30.1758C158.947 30.1758 157.901 29.7275 157.099 28.8311C156.302 27.9346 155.903 26.748 155.903 25.2715V25.1572ZM157.538 25.3506C157.538 26.4053 157.781 27.252 158.268 27.8906C158.76 28.5293 159.416 28.8486 160.236 28.8486C161.062 28.8486 161.719 28.5264 162.205 27.8818C162.691 27.2314 162.935 26.3232 162.935 25.1572C162.935 24.1143 162.686 23.2705 162.188 22.626C161.695 21.9756 161.039 21.6504 160.219 21.6504C159.416 21.6504 158.769 21.9697 158.276 22.6084C157.784 23.2471 157.538 24.1611 157.538 25.3506ZM166.204 25.166C166.204 23.707 166.55 22.5352 167.241 21.6504C167.933 20.7598 168.838 20.3145 169.957 20.3145C171.07 20.3145 171.952 20.6953 172.603 21.457V16.5H174.229V30H172.734L172.655 28.9805C172.005 29.7773 171.1 30.1758 169.939 30.1758C168.838 30.1758 167.938 29.7246 167.241 28.8223C166.55 27.9199 166.204 26.7422 166.204 25.2891V25.166ZM167.83 25.3506C167.83 26.4287 168.053 27.2725 168.498 27.8818C168.943 28.4912 169.559 28.7959 170.344 28.7959C171.375 28.7959 172.128 28.333 172.603 27.4072V23.0391C172.116 22.1426 171.369 21.6943 170.361 21.6943C169.564 21.6943 168.943 22.002 168.498 22.6172C168.053 23.2324 167.83 24.1436 167.83 25.3506ZM182.297 27.4775C182.297 27.0381 182.13 26.6982 181.796 26.458C181.468 26.2119 180.891 26.001 180.064 25.8252C179.244 25.6494 178.591 25.4385 178.104 25.1924C177.624 24.9463 177.267 24.6533 177.032 24.3135C176.804 23.9736 176.689 23.5693 176.689 23.1006C176.689 22.3213 177.018 21.6621 177.674 21.123C178.336 20.584 179.18 20.3145 180.205 20.3145C181.283 20.3145 182.156 20.5928 182.824 21.1494C183.498 21.7061 183.835 22.418 183.835 23.2852H182.2C182.2 22.8398 182.01 22.4561 181.629 22.1338C181.254 21.8115 180.779 21.6504 180.205 21.6504C179.613 21.6504 179.15 21.7793 178.816 22.0371C178.482 22.2949 178.315 22.6318 178.315 23.0479C178.315 23.4404 178.471 23.7363 178.781 23.9355C179.092 24.1348 179.651 24.3252 180.46 24.5068C181.274 24.6885 181.934 24.9053 182.438 25.1572C182.941 25.4092 183.313 25.7139 183.554 26.0713C183.8 26.4229 183.923 26.8535 183.923 27.3633C183.923 28.2129 183.583 28.8955 182.903 29.4111C182.224 29.9209 181.342 30.1758 180.258 30.1758C179.496 30.1758 178.822 30.041 178.236 29.7715C177.65 29.502 177.19 29.127 176.856 28.6465C176.528 28.1602 176.364 27.6357 176.364 27.0732H177.99C178.02 27.6182 178.236 28.0518 178.641 28.374C179.051 28.6904 179.59 28.8486 180.258 28.8486C180.873 28.8486 181.365 28.7256 181.734 28.4795C182.109 28.2275 182.297 27.8936 182.297 27.4775Z" fill="white"/>
<path d="M49.8984 100.939C49.7402 102.293 49.2393 103.339 48.3955 104.077C47.5576 104.81 46.4414 105.176 45.0469 105.176C43.5352 105.176 42.3223 104.634 41.4082 103.55C40.5 102.466 40.0459 101.016 40.0459 99.1992V97.9688C40.0459 96.7793 40.2568 95.7334 40.6787 94.8311C41.1064 93.9287 41.71 93.2373 42.4893 92.7568C43.2686 92.2705 44.1709 92.0273 45.1963 92.0273C46.5557 92.0273 47.6455 92.4082 48.4658 93.1699C49.2861 93.9258 49.7637 94.9746 49.8984 96.3164H48.2021C48.0557 95.2969 47.7363 94.5586 47.2441 94.1016C46.7578 93.6445 46.0752 93.416 45.1963 93.416C44.1182 93.416 43.2715 93.8145 42.6562 94.6113C42.0469 95.4082 41.7422 96.542 41.7422 98.0127V99.252C41.7422 100.641 42.0322 101.745 42.6123 102.565C43.1924 103.386 44.0039 103.796 45.0469 103.796C45.9844 103.796 46.7021 103.585 47.2002 103.163C47.7041 102.735 48.0381 101.994 48.2021 100.939H49.8984ZM57.8262 104.06C57.1934 104.804 56.2646 105.176 55.04 105.176C54.0264 105.176 53.2529 104.883 52.7197 104.297C52.1924 103.705 51.9258 102.832 51.9199 101.678V95.4902H53.5459V101.634C53.5459 103.075 54.1318 103.796 55.3037 103.796C56.5459 103.796 57.3721 103.333 57.7822 102.407V95.4902H59.4082V105H57.8613L57.8262 104.06ZM66.4834 96.9492C66.2373 96.9082 65.9707 96.8877 65.6836 96.8877C64.6172 96.8877 63.8936 97.3418 63.5127 98.25V105H61.8867V95.4902H63.4688L63.4951 96.5889C64.0283 95.7393 64.7842 95.3145 65.7627 95.3145C66.0791 95.3145 66.3193 95.3555 66.4834 95.4375V96.9492ZM72.583 96.9492C72.3369 96.9082 72.0703 96.8877 71.7832 96.8877C70.7168 96.8877 69.9932 97.3418 69.6123 98.25V105H67.9863V95.4902H69.5684L69.5947 96.5889C70.1279 95.7393 70.8838 95.3145 71.8623 95.3145C72.1787 95.3145 72.4189 95.3555 72.583 95.4375V96.9492ZM77.8564 105.176C76.5674 105.176 75.5186 104.754 74.71 103.91C73.9014 103.061 73.4971 101.927 73.4971 100.509V100.21C73.4971 99.2666 73.6758 98.4258 74.0332 97.6875C74.3965 96.9434 74.9004 96.3633 75.5449 95.9473C76.1953 95.5254 76.8984 95.3145 77.6543 95.3145C78.8906 95.3145 79.8516 95.7217 80.5371 96.5361C81.2227 97.3506 81.5654 98.5166 81.5654 100.034V100.711H75.123C75.1465 101.648 75.4189 102.407 75.9404 102.987C76.4678 103.562 77.1357 103.849 77.9443 103.849C78.5186 103.849 79.0049 103.731 79.4033 103.497C79.8018 103.263 80.1504 102.952 80.4492 102.565L81.4424 103.339C80.6455 104.563 79.4502 105.176 77.8564 105.176ZM77.6543 96.6504C76.998 96.6504 76.4473 96.8906 76.002 97.3711C75.5566 97.8457 75.2812 98.5137 75.1758 99.375H79.9395V99.252C79.8926 98.4258 79.6699 97.7871 79.2715 97.3359C78.873 96.8789 78.334 96.6504 77.6543 96.6504ZM84.9932 95.4902L85.0459 96.6855C85.7725 95.7715 86.7217 95.3145 87.8936 95.3145C89.9033 95.3145 90.917 96.4482 90.9346 98.7158V105H89.3086V98.707C89.3027 98.0215 89.1445 97.5146 88.834 97.1865C88.5293 96.8584 88.0518 96.6943 87.4014 96.6943C86.874 96.6943 86.4111 96.835 86.0127 97.1162C85.6143 97.3975 85.3037 97.7666 85.0811 98.2236V105H83.4551V95.4902H84.9932ZM97.2012 103.849C97.7812 103.849 98.2881 103.673 98.7217 103.321C99.1553 102.97 99.3955 102.53 99.4424 102.003H100.98C100.951 102.548 100.764 103.066 100.418 103.559C100.072 104.051 99.6094 104.443 99.0293 104.736C98.4551 105.029 97.8457 105.176 97.2012 105.176C95.9062 105.176 94.875 104.745 94.1074 103.884C93.3457 103.017 92.9648 101.833 92.9648 100.333V100.061C92.9648 99.1348 93.1348 98.3115 93.4746 97.5908C93.8145 96.8701 94.3008 96.3105 94.9336 95.9121C95.5723 95.5137 96.3252 95.3145 97.1924 95.3145C98.2588 95.3145 99.1436 95.6338 99.8467 96.2725C100.556 96.9111 100.934 97.7402 100.98 98.7598H99.4424C99.3955 98.1445 99.1611 97.6406 98.7393 97.248C98.3232 96.8496 97.8076 96.6504 97.1924 96.6504C96.3662 96.6504 95.7246 96.9492 95.2676 97.5469C94.8164 98.1387 94.5908 98.9971 94.5908 100.122V100.43C94.5908 101.525 94.8164 102.369 95.2676 102.961C95.7188 103.553 96.3633 103.849 97.2012 103.849ZM105.92 102.618L108.135 95.4902H109.875L106.052 106.468C105.46 108.05 104.52 108.841 103.23 108.841L102.923 108.814L102.316 108.7V107.382L102.756 107.417C103.307 107.417 103.734 107.306 104.039 107.083C104.35 106.86 104.604 106.453 104.804 105.861L105.164 104.895L101.771 95.4902H103.547L105.92 102.618Z" fill="black"/>
<path d="M40.4854 153V140.203H44.0977C45.2109 140.203 46.1953 140.449 47.0508 140.941C47.9062 141.434 48.5654 142.134 49.0283 143.042C49.4971 143.95 49.7344 144.993 49.7402 146.171V146.988C49.7402 148.195 49.5059 149.253 49.0371 150.161C48.5742 151.069 47.9092 151.767 47.042 152.253C46.1807 152.739 45.1758 152.988 44.0273 153H40.4854ZM42.1729 141.592V151.62H43.9482C45.249 151.62 46.2598 151.216 46.9805 150.407C47.707 149.599 48.0703 148.447 48.0703 146.953V146.206C48.0703 144.753 47.7275 143.625 47.042 142.822C46.3623 142.014 45.3955 141.604 44.1416 141.592H42.1729ZM55.9893 153.176C54.7002 153.176 53.6514 152.754 52.8428 151.91C52.0342 151.061 51.6299 149.927 51.6299 148.509V148.21C51.6299 147.267 51.8086 146.426 52.166 145.688C52.5293 144.943 53.0332 144.363 53.6777 143.947C54.3281 143.525 55.0312 143.314 55.7871 143.314C57.0234 143.314 57.9844 143.722 58.6699 144.536C59.3555 145.351 59.6982 146.517 59.6982 148.034V148.711H53.2559C53.2793 149.648 53.5518 150.407 54.0732 150.987C54.6006 151.562 55.2686 151.849 56.0771 151.849C56.6514 151.849 57.1377 151.731 57.5361 151.497C57.9346 151.263 58.2832 150.952 58.582 150.565L59.5752 151.339C58.7783 152.563 57.583 153.176 55.9893 153.176ZM55.7871 144.65C55.1309 144.65 54.5801 144.891 54.1348 145.371C53.6895 145.846 53.4141 146.514 53.3086 147.375H58.0723V147.252C58.0254 146.426 57.8027 145.787 57.4043 145.336C57.0059 144.879 56.4668 144.65 55.7871 144.65ZM69.6211 148.351C69.6211 149.798 69.29 150.964 68.6279 151.849C67.9658 152.733 67.0693 153.176 65.9385 153.176C64.7842 153.176 63.876 152.81 63.2139 152.077V156.656H61.5879V143.49H63.0732L63.1523 144.545C63.8145 143.725 64.7344 143.314 65.9121 143.314C67.0547 143.314 67.957 143.745 68.6191 144.606C69.2871 145.468 69.6211 146.666 69.6211 148.201V148.351ZM67.9951 148.166C67.9951 147.094 67.7666 146.247 67.3096 145.626C66.8525 145.005 66.2256 144.694 65.4287 144.694C64.4443 144.694 63.7061 145.131 63.2139 146.004V150.548C63.7002 151.415 64.4443 151.849 65.4463 151.849C66.2256 151.849 66.8438 151.541 67.3008 150.926C67.7637 150.305 67.9951 149.385 67.9951 148.166ZM71.2646 148.157C71.2646 147.226 71.4463 146.388 71.8096 145.644C72.1787 144.899 72.6885 144.325 73.3389 143.921C73.9951 143.517 74.7422 143.314 75.5801 143.314C76.875 143.314 77.9209 143.763 78.7178 144.659C79.5205 145.556 79.9219 146.748 79.9219 148.236V148.351C79.9219 149.276 79.7432 150.108 79.3857 150.847C79.0342 151.579 78.5273 152.15 77.8652 152.561C77.209 152.971 76.4531 153.176 75.5977 153.176C74.3086 153.176 73.2627 152.728 72.46 151.831C71.6631 150.935 71.2646 149.748 71.2646 148.271V148.157ZM72.8994 148.351C72.8994 149.405 73.1426 150.252 73.6289 150.891C74.1211 151.529 74.7773 151.849 75.5977 151.849C76.4238 151.849 77.0801 151.526 77.5664 150.882C78.0527 150.231 78.2959 149.323 78.2959 148.157C78.2959 147.114 78.0469 146.271 77.5488 145.626C77.0566 144.976 76.4004 144.65 75.5801 144.65C74.7773 144.65 74.1299 144.97 73.6377 145.608C73.1455 146.247 72.8994 147.161 72.8994 148.351ZM87.498 150.478C87.498 150.038 87.3311 149.698 86.9971 149.458C86.6689 149.212 86.0918 149.001 85.2656 148.825C84.4453 148.649 83.792 148.438 83.3057 148.192C82.8252 147.946 82.4678 147.653 82.2334 147.313C82.0049 146.974 81.8906 146.569 81.8906 146.101C81.8906 145.321 82.2188 144.662 82.875 144.123C83.5371 143.584 84.3809 143.314 85.4062 143.314C86.4844 143.314 87.3574 143.593 88.0254 144.149C88.6992 144.706 89.0361 145.418 89.0361 146.285H87.4014C87.4014 145.84 87.2109 145.456 86.8301 145.134C86.4551 144.812 85.9805 144.65 85.4062 144.65C84.8145 144.65 84.3516 144.779 84.0176 145.037C83.6836 145.295 83.5166 145.632 83.5166 146.048C83.5166 146.44 83.6719 146.736 83.9824 146.936C84.293 147.135 84.8525 147.325 85.6611 147.507C86.4756 147.688 87.1348 147.905 87.6387 148.157C88.1426 148.409 88.5146 148.714 88.7549 149.071C89.001 149.423 89.124 149.854 89.124 150.363C89.124 151.213 88.7842 151.896 88.1045 152.411C87.4248 152.921 86.543 153.176 85.459 153.176C84.6973 153.176 84.0234 153.041 83.4375 152.771C82.8516 152.502 82.3916 152.127 82.0576 151.646C81.7295 151.16 81.5654 150.636 81.5654 150.073H83.1914C83.2207 150.618 83.4375 151.052 83.8418 151.374C84.252 151.69 84.791 151.849 85.459 151.849C86.0742 151.849 86.5664 151.726 86.9355 151.479C87.3105 151.228 87.498 150.894 87.498 150.478ZM93.0088 153H91.3828V143.49H93.0088V153ZM91.251 140.968C91.251 140.704 91.3301 140.481 91.4883 140.3C91.6523 140.118 91.8926 140.027 92.209 140.027C92.5254 140.027 92.7656 140.118 92.9297 140.3C93.0938 140.481 93.1758 140.704 93.1758 140.968C93.1758 141.231 93.0938 141.451 92.9297 141.627C92.7656 141.803 92.5254 141.891 92.209 141.891C91.8926 141.891 91.6523 141.803 91.4883 141.627C91.3301 141.451 91.251 141.231 91.251 140.968ZM97.8252 141.188V143.49H99.6006V144.747H97.8252V150.645C97.8252 151.025 97.9043 151.312 98.0625 151.506C98.2207 151.693 98.4902 151.787 98.8711 151.787C99.0586 151.787 99.3164 151.752 99.6445 151.682V153C99.2168 153.117 98.8008 153.176 98.3965 153.176C97.6699 153.176 97.1221 152.956 96.7529 152.517C96.3838 152.077 96.1992 151.453 96.1992 150.645V144.747H94.4678V143.49H96.1992V141.188H97.8252ZM114.718 141.592H110.604V153H108.926V141.592H104.821V140.203H114.718V141.592ZM118.84 150.618L121.055 143.49H122.795L118.972 154.468C118.38 156.05 117.439 156.841 116.15 156.841L115.843 156.814L115.236 156.7V155.382L115.676 155.417C116.227 155.417 116.654 155.306 116.959 155.083C117.27 154.86 117.524 154.453 117.724 153.861L118.084 152.895L114.691 143.49H116.467L118.84 150.618ZM132.287 148.351C132.287 149.798 131.956 150.964 131.294 151.849C130.632 152.733 129.735 153.176 128.604 153.176C127.45 153.176 126.542 152.81 125.88 152.077V156.656H124.254V143.49H125.739L125.818 144.545C126.48 143.725 127.4 143.314 128.578 143.314C129.721 143.314 130.623 143.745 131.285 144.606C131.953 145.468 132.287 146.666 132.287 148.201V148.351ZM130.661 148.166C130.661 147.094 130.433 146.247 129.976 145.626C129.519 145.005 128.892 144.694 128.095 144.694C127.11 144.694 126.372 145.131 125.88 146.004V150.548C126.366 151.415 127.11 151.849 128.112 151.849C128.892 151.849 129.51 151.541 129.967 150.926C130.43 150.305 130.661 149.385 130.661 148.166ZM138.308 153.176C137.019 153.176 135.97 152.754 135.161 151.91C134.353 151.061 133.948 149.927 133.948 148.509V148.21C133.948 147.267 134.127 146.426 134.484 145.688C134.848 144.943 135.352 144.363 135.996 143.947C136.646 143.525 137.35 143.314 138.105 143.314C139.342 143.314 140.303 143.722 140.988 144.536C141.674 145.351 142.017 146.517 142.017 148.034V148.711H135.574C135.598 149.648 135.87 150.407 136.392 150.987C136.919 151.562 137.587 151.849 138.396 151.849C138.97 151.849 139.456 151.731 139.854 151.497C140.253 151.263 140.602 150.952 140.9 150.565L141.894 151.339C141.097 152.563 139.901 153.176 138.308 153.176ZM138.105 144.65C137.449 144.65 136.898 144.891 136.453 145.371C136.008 145.846 135.732 146.514 135.627 147.375H140.391V147.252C140.344 146.426 140.121 145.787 139.723 145.336C139.324 144.879 138.785 144.65 138.105 144.65Z" fill="black"/>
<rect x="153.5" y="87.5" width="98" height="19" rx="2.5" fill="white" stroke="#D9D9D9"/>
<path d="M234.932 100.666L228.425 94.2134C228.111 93.9022 228.111 93.3976 228.425 93.0864L229.184 92.3338C229.497 92.0231 230.005 92.0225 230.319 92.3325L235.5 97.4465L240.681 92.3325C240.995 92.0225 241.503 92.0231 241.816 92.3338L242.575 93.0864C242.889 93.3976 242.889 93.9022 242.575 94.2134L236.068 100.666C235.754 100.977 235.246 100.977 234.932 100.666Z" fill="#D9D9D9"/>
<path d="M169.996 92.4688V98.2695C169.992 99.0742 169.738 99.7324 169.234 100.244C168.734 100.756 168.055 101.043 167.195 101.105L166.896 101.117C165.963 101.117 165.219 100.865 164.664 100.361C164.109 99.8574 163.828 99.1641 163.82 98.2812V92.4688H164.934V98.2461C164.934 98.8633 165.104 99.3438 165.443 99.6875C165.783 100.027 166.268 100.197 166.896 100.197C167.533 100.197 168.02 100.027 168.355 99.6875C168.695 99.3477 168.865 98.8691 168.865 98.252V92.4688H169.996ZM174.285 97.1973C173.32 96.9199 172.617 96.5801 172.176 96.1777C171.738 95.7715 171.52 95.2715 171.52 94.6777C171.52 94.0059 171.787 93.4512 172.322 93.0137C172.861 92.5723 173.561 92.3516 174.42 92.3516C175.006 92.3516 175.527 92.4648 175.984 92.6914C176.445 92.918 176.801 93.2305 177.051 93.6289C177.305 94.0273 177.432 94.4629 177.432 94.9355H176.301C176.301 94.4199 176.137 94.0156 175.809 93.7227C175.48 93.4258 175.018 93.2773 174.42 93.2773C173.865 93.2773 173.432 93.4004 173.119 93.6465C172.811 93.8887 172.656 94.2266 172.656 94.6602C172.656 95.0078 172.803 95.3027 173.096 95.5449C173.393 95.7832 173.895 96.002 174.602 96.2012C175.312 96.4004 175.867 96.6211 176.266 96.8633C176.668 97.1016 176.965 97.3809 177.156 97.7012C177.352 98.0215 177.449 98.3984 177.449 98.832C177.449 99.5234 177.18 100.078 176.641 100.496C176.102 100.91 175.381 101.117 174.479 101.117C173.893 101.117 173.346 101.006 172.838 100.783C172.33 100.557 171.938 100.248 171.66 99.8574C171.387 99.4668 171.25 99.0234 171.25 98.5273H172.381C172.381 99.043 172.57 99.4512 172.949 99.752C173.332 100.049 173.842 100.197 174.479 100.197C175.072 100.197 175.527 100.076 175.844 99.834C176.16 99.5918 176.318 99.2617 176.318 98.8438C176.318 98.4258 176.172 98.1035 175.879 97.877C175.586 97.6465 175.055 97.4199 174.285 97.1973ZM178.896 101V92.4688H181.305C182.047 92.4688 182.703 92.6328 183.273 92.9609C183.844 93.2891 184.283 93.7559 184.592 94.3613C184.904 94.9668 185.062 95.6621 185.066 96.4473V96.9922C185.066 97.7969 184.91 98.502 184.598 99.1074C184.289 99.7129 183.846 100.178 183.268 100.502C182.693 100.826 182.023 100.992 181.258 101H178.896ZM180.021 93.3945V100.08H181.205C182.072 100.08 182.746 99.8105 183.227 99.2715C183.711 98.7324 183.953 97.9648 183.953 96.9688V96.4707C183.953 95.502 183.725 94.75 183.268 94.2148C182.814 93.6758 182.17 93.4023 181.334 93.3945H180.021Z" fill="#666666"/>
<rect x="80" y="446" width="204" height="40" rx="3" fill="#1890FF"/>
<path d="M174.521 468.66H169.159L167.955 472H166.215L171.102 459.203H172.578L177.474 472H175.742L174.521 468.66ZM169.669 467.271H174.02L171.84 461.286L169.669 467.271ZM178.546 467.166C178.546 465.707 178.892 464.535 179.583 463.65C180.274 462.76 181.18 462.314 182.299 462.314C183.412 462.314 184.294 462.695 184.944 463.457V458.5H186.57V472H185.076L184.997 470.98C184.347 471.777 183.441 472.176 182.281 472.176C181.18 472.176 180.28 471.725 179.583 470.822C178.892 469.92 178.546 468.742 178.546 467.289V467.166ZM180.172 467.351C180.172 468.429 180.395 469.272 180.84 469.882C181.285 470.491 181.9 470.796 182.686 470.796C183.717 470.796 184.47 470.333 184.944 469.407V465.039C184.458 464.143 183.711 463.694 182.703 463.694C181.906 463.694 181.285 464.002 180.84 464.617C180.395 465.232 180.172 466.144 180.172 467.351ZM188.706 467.166C188.706 465.707 189.052 464.535 189.743 463.65C190.435 462.76 191.34 462.314 192.459 462.314C193.572 462.314 194.454 462.695 195.104 463.457V458.5H196.73V472H195.236L195.157 470.98C194.507 471.777 193.602 472.176 192.441 472.176C191.34 472.176 190.44 471.725 189.743 470.822C189.052 469.92 188.706 468.742 188.706 467.289V467.166ZM190.332 467.351C190.332 468.429 190.555 469.272 191 469.882C191.445 470.491 192.061 470.796 192.846 470.796C193.877 470.796 194.63 470.333 195.104 469.407V465.039C194.618 464.143 193.871 463.694 192.863 463.694C192.066 463.694 191.445 464.002 191 464.617C190.555 465.232 190.332 466.144 190.332 467.351Z" fill="white"/>
<g filter="url(#filter0_d)">
<rect x="155" y="137" width="136" height="20" rx="3" fill="white"/>
<rect x="155.5" y="137.5" width="135" height="19" rx="2.5" stroke="#40A9FF"/>
</g>
<g clip-path="url(#clip0)">
<path d="M274.068 143.334L280.575 149.787C280.889 150.098 280.889 150.602 280.575 150.914L279.816 151.666C279.503 151.977 278.995 151.977 278.681 151.668L273.5 146.554L268.319 151.668C268.005 151.977 267.497 151.977 267.184 151.666L266.425 150.914C266.111 150.602 266.111 150.098 266.425 149.787L272.932 143.334C273.246 143.023 273.754 143.023 274.068 143.334Z" fill="#D9D9D9"/>
</g>
<path d="M168.115 147.66V151H166.99V142.469H170.137C171.07 142.469 171.801 142.707 172.328 143.184C172.859 143.66 173.125 144.291 173.125 145.076C173.125 145.904 172.865 146.543 172.346 146.992C171.83 147.438 171.09 147.66 170.125 147.66H168.115ZM168.115 146.74H170.137C170.738 146.74 171.199 146.6 171.52 146.318C171.84 146.033 172 145.623 172 145.088C172 144.58 171.84 144.174 171.52 143.869C171.199 143.564 170.76 143.406 170.201 143.395H168.115V146.74ZM178.234 151C178.172 150.875 178.121 150.652 178.082 150.332C177.578 150.855 176.977 151.117 176.277 151.117C175.652 151.117 175.139 150.941 174.736 150.59C174.338 150.234 174.139 149.785 174.139 149.242C174.139 148.582 174.389 148.07 174.889 147.707C175.393 147.34 176.1 147.156 177.01 147.156H178.064V146.658C178.064 146.279 177.951 145.979 177.725 145.756C177.498 145.529 177.164 145.416 176.723 145.416C176.336 145.416 176.012 145.514 175.75 145.709C175.488 145.904 175.357 146.141 175.357 146.418H174.268C174.268 146.102 174.379 145.797 174.602 145.504C174.828 145.207 175.133 144.973 175.516 144.801C175.902 144.629 176.326 144.543 176.787 144.543C177.518 144.543 178.09 144.727 178.504 145.094C178.918 145.457 179.133 145.959 179.148 146.6V149.518C179.148 150.1 179.223 150.562 179.371 150.906V151H178.234ZM176.436 150.174C176.775 150.174 177.098 150.086 177.402 149.91C177.707 149.734 177.928 149.506 178.064 149.225V147.924H177.215C175.887 147.924 175.223 148.312 175.223 149.09C175.223 149.43 175.336 149.695 175.562 149.887C175.789 150.078 176.08 150.174 176.436 150.174ZM182.828 149.412L184.305 144.66H185.465L182.916 151.979C182.521 153.033 181.895 153.561 181.035 153.561L180.83 153.543L180.426 153.467V152.588L180.719 152.611C181.086 152.611 181.371 152.537 181.574 152.389C181.781 152.24 181.951 151.969 182.084 151.574L182.324 150.93L180.062 144.66H181.246L182.828 149.412ZM191.793 147.9C191.793 148.865 191.572 149.643 191.131 150.232C190.689 150.822 190.092 151.117 189.338 151.117C188.568 151.117 187.963 150.873 187.521 150.385V153.438H186.438V144.66H187.428L187.48 145.363C187.922 144.816 188.535 144.543 189.32 144.543C190.082 144.543 190.684 144.83 191.125 145.404C191.57 145.979 191.793 146.777 191.793 147.801V147.9ZM190.709 147.777C190.709 147.062 190.557 146.498 190.252 146.084C189.947 145.67 189.529 145.463 188.998 145.463C188.342 145.463 187.85 145.754 187.521 146.336V149.365C187.846 149.943 188.342 150.232 189.01 150.232C189.529 150.232 189.941 150.027 190.246 149.617C190.555 149.203 190.709 148.59 190.709 147.777ZM197.09 151C197.027 150.875 196.977 150.652 196.938 150.332C196.434 150.855 195.832 151.117 195.133 151.117C194.508 151.117 193.994 150.941 193.592 150.59C193.193 150.234 192.994 149.785 192.994 149.242C192.994 148.582 193.244 148.07 193.744 147.707C194.248 147.34 194.955 147.156 195.865 147.156H196.92V146.658C196.92 146.279 196.807 145.979 196.58 145.756C196.354 145.529 196.02 145.416 195.578 145.416C195.191 145.416 194.867 145.514 194.605 145.709C194.344 145.904 194.213 146.141 194.213 146.418H193.123C193.123 146.102 193.234 145.797 193.457 145.504C193.684 145.207 193.988 144.973 194.371 144.801C194.758 144.629 195.182 144.543 195.643 144.543C196.373 144.543 196.945 144.727 197.359 145.094C197.773 145.457 197.988 145.959 198.004 146.6V149.518C198.004 150.1 198.078 150.562 198.227 150.906V151H197.09ZM195.291 150.174C195.631 150.174 195.953 150.086 196.258 149.91C196.562 149.734 196.783 149.506 196.92 149.225V147.924H196.07C194.742 147.924 194.078 148.312 194.078 149.09C194.078 149.43 194.191 149.695 194.418 149.887C194.645 150.078 194.936 150.174 195.291 150.174ZM200.881 151H199.797V142H200.881V151Z" fill="black"/>
<g filter="url(#filter1_d)">
<rect x="155" y="160" width="133" height="84" rx="3" fill="white"/>
</g>
<path d="M169.266 177.293C169.16 178.195 168.826 178.893 168.264 179.385C167.705 179.873 166.961 180.117 166.031 180.117C165.023 180.117 164.215 179.756 163.605 179.033C163 178.311 162.697 177.344 162.697 176.133V175.312C162.697 174.52 162.838 173.822 163.119 173.221C163.404 172.619 163.807 172.158 164.326 171.838C164.846 171.514 165.447 171.352 166.131 171.352C167.037 171.352 167.764 171.605 168.311 172.113C168.857 172.617 169.176 173.316 169.266 174.211H168.135C168.037 173.531 167.824 173.039 167.496 172.734C167.172 172.43 166.717 172.277 166.131 172.277C165.412 172.277 164.848 172.543 164.438 173.074C164.031 173.605 163.828 174.361 163.828 175.342V176.168C163.828 177.094 164.021 177.83 164.408 178.377C164.795 178.924 165.336 179.197 166.031 179.197C166.656 179.197 167.135 179.057 167.467 178.775C167.803 178.49 168.025 177.996 168.135 177.293H169.266ZM174.551 179.373C174.129 179.869 173.51 180.117 172.693 180.117C172.018 180.117 171.502 179.922 171.146 179.531C170.795 179.137 170.617 178.555 170.613 177.785V173.66H171.697V177.756C171.697 178.717 172.088 179.197 172.869 179.197C173.697 179.197 174.248 178.889 174.521 178.271V173.66H175.605V180H174.574L174.551 179.373ZM178.436 180H177.352V171H178.436V180ZM179.912 176.777C179.912 175.781 180.141 174.994 180.598 174.416C181.055 173.834 181.668 173.543 182.438 173.543C183.188 173.543 183.779 173.795 184.213 174.299L184.26 173.66H185.256V182.438H184.172V179.414C183.734 179.883 183.152 180.117 182.426 180.117C181.66 180.117 181.049 179.82 180.592 179.227C180.139 178.629 179.912 177.838 179.912 176.854V176.777ZM180.996 176.9C180.996 177.627 181.148 178.197 181.453 178.611C181.762 179.025 182.176 179.232 182.695 179.232C183.34 179.232 183.832 178.947 184.172 178.377V175.271C183.828 174.713 183.34 174.434 182.707 174.434C182.184 174.434 181.768 174.643 181.459 175.061C181.15 175.475 180.996 176.088 180.996 176.9ZM190.91 179.373C190.488 179.869 189.869 180.117 189.053 180.117C188.377 180.117 187.861 179.922 187.506 179.531C187.154 179.137 186.977 178.555 186.973 177.785V173.66H188.057V177.756C188.057 178.717 188.447 179.197 189.229 179.197C190.057 179.197 190.607 178.889 190.881 178.271V173.66H191.965V180H190.934L190.91 179.373ZM194.795 180H193.711V173.66H194.795V180ZM193.623 171.979C193.623 171.803 193.676 171.654 193.781 171.533C193.891 171.412 194.051 171.352 194.262 171.352C194.473 171.352 194.633 171.412 194.742 171.533C194.852 171.654 194.906 171.803 194.906 171.979C194.906 172.154 194.852 172.301 194.742 172.418C194.633 172.535 194.473 172.594 194.262 172.594C194.051 172.594 193.891 172.535 193.781 172.418C193.676 172.301 193.623 172.154 193.623 171.979Z" fill="black"/>
<rect x="155" y="189" width="133" height="19" fill="#E6F7FF"/>
<path d="M164.115 199.66V203H162.99V194.469H166.137C167.07 194.469 167.801 194.707 168.328 195.184C168.859 195.66 169.125 196.291 169.125 197.076C169.125 197.904 168.865 198.543 168.346 198.992C167.83 199.438 167.09 199.66 166.125 199.66H164.115ZM164.115 198.74H166.137C166.738 198.74 167.199 198.6 167.52 198.318C167.84 198.033 168 197.623 168 197.088C168 196.58 167.84 196.174 167.52 195.869C167.199 195.564 166.76 195.406 166.201 195.395H164.115V198.74ZM174.234 203C174.172 202.875 174.121 202.652 174.082 202.332C173.578 202.855 172.977 203.117 172.277 203.117C171.652 203.117 171.139 202.941 170.736 202.59C170.338 202.234 170.139 201.785 170.139 201.242C170.139 200.582 170.389 200.07 170.889 199.707C171.393 199.34 172.1 199.156 173.01 199.156H174.064V198.658C174.064 198.279 173.951 197.979 173.725 197.756C173.498 197.529 173.164 197.416 172.723 197.416C172.336 197.416 172.012 197.514 171.75 197.709C171.488 197.904 171.357 198.141 171.357 198.418H170.268C170.268 198.102 170.379 197.797 170.602 197.504C170.828 197.207 171.133 196.973 171.516 196.801C171.902 196.629 172.326 196.543 172.787 196.543C173.518 196.543 174.09 196.727 174.504 197.094C174.918 197.457 175.133 197.959 175.148 198.6V201.518C175.148 202.1 175.223 202.562 175.371 202.906V203H174.234ZM172.436 202.174C172.775 202.174 173.098 202.086 173.402 201.91C173.707 201.734 173.928 201.506 174.064 201.225V199.924H173.215C171.887 199.924 171.223 200.312 171.223 201.09C171.223 201.43 171.336 201.695 171.562 201.887C171.789 202.078 172.08 202.174 172.436 202.174ZM178.828 201.412L180.305 196.66H181.465L178.916 203.979C178.521 205.033 177.895 205.561 177.035 205.561L176.83 205.543L176.426 205.467V204.588L176.719 204.611C177.086 204.611 177.371 204.537 177.574 204.389C177.781 204.24 177.951 203.969 178.084 203.574L178.324 202.93L176.062 196.66H177.246L178.828 201.412ZM187.793 199.9C187.793 200.865 187.572 201.643 187.131 202.232C186.689 202.822 186.092 203.117 185.338 203.117C184.568 203.117 183.963 202.873 183.521 202.385V205.438H182.438V196.66H183.428L183.48 197.363C183.922 196.816 184.535 196.543 185.32 196.543C186.082 196.543 186.684 196.83 187.125 197.404C187.57 197.979 187.793 198.777 187.793 199.801V199.9ZM186.709 199.777C186.709 199.062 186.557 198.498 186.252 198.084C185.947 197.67 185.529 197.463 184.998 197.463C184.342 197.463 183.85 197.754 183.521 198.336V201.365C183.846 201.943 184.342 202.232 185.01 202.232C185.529 202.232 185.941 202.027 186.246 201.617C186.555 201.203 186.709 200.59 186.709 199.777ZM193.09 203C193.027 202.875 192.977 202.652 192.938 202.332C192.434 202.855 191.832 203.117 191.133 203.117C190.508 203.117 189.994 202.941 189.592 202.59C189.193 202.234 188.994 201.785 188.994 201.242C188.994 200.582 189.244 200.07 189.744 199.707C190.248 199.34 190.955 199.156 191.865 199.156H192.92V198.658C192.92 198.279 192.807 197.979 192.58 197.756C192.354 197.529 192.02 197.416 191.578 197.416C191.191 197.416 190.867 197.514 190.605 197.709C190.344 197.904 190.213 198.141 190.213 198.418H189.123C189.123 198.102 189.234 197.797 189.457 197.504C189.684 197.207 189.988 196.973 190.371 196.801C190.758 196.629 191.182 196.543 191.643 196.543C192.373 196.543 192.945 196.727 193.359 197.094C193.773 197.457 193.988 197.959 194.004 198.6V201.518C194.004 202.1 194.078 202.562 194.227 202.906V203H193.09ZM191.291 202.174C191.631 202.174 191.953 202.086 192.258 201.91C192.562 201.734 192.783 201.506 192.92 201.225V199.924H192.07C190.742 199.924 190.078 200.312 190.078 201.09C190.078 201.43 190.191 201.695 190.418 201.887C190.645 202.078 190.936 202.174 191.291 202.174ZM196.881 203H195.797V194H196.881V203Z" fill="black"/>
<path d="M165.504 223.197C164.539 222.92 163.836 222.58 163.395 222.178C162.957 221.771 162.738 221.271 162.738 220.678C162.738 220.006 163.006 219.451 163.541 219.014C164.08 218.572 164.779 218.352 165.639 218.352C166.225 218.352 166.746 218.465 167.203 218.691C167.664 218.918 168.02 219.23 168.27 219.629C168.523 220.027 168.65 220.463 168.65 220.936H167.52C167.52 220.42 167.355 220.016 167.027 219.723C166.699 219.426 166.236 219.277 165.639 219.277C165.084 219.277 164.65 219.4 164.338 219.646C164.029 219.889 163.875 220.227 163.875 220.66C163.875 221.008 164.021 221.303 164.314 221.545C164.611 221.783 165.113 222.002 165.82 222.201C166.531 222.4 167.086 222.621 167.484 222.863C167.887 223.102 168.184 223.381 168.375 223.701C168.57 224.021 168.668 224.398 168.668 224.832C168.668 225.523 168.398 226.078 167.859 226.496C167.32 226.91 166.6 227.117 165.697 227.117C165.111 227.117 164.564 227.006 164.057 226.783C163.549 226.557 163.156 226.248 162.879 225.857C162.605 225.467 162.469 225.023 162.469 224.527H163.6C163.6 225.043 163.789 225.451 164.168 225.752C164.551 226.049 165.061 226.197 165.697 226.197C166.291 226.197 166.746 226.076 167.062 225.834C167.379 225.592 167.537 225.262 167.537 224.844C167.537 224.426 167.391 224.104 167.098 223.877C166.805 223.646 166.273 223.42 165.504 223.197ZM171.416 219.125V220.66H172.6V221.498H171.416V225.43C171.416 225.684 171.469 225.875 171.574 226.004C171.68 226.129 171.859 226.191 172.113 226.191C172.238 226.191 172.41 226.168 172.629 226.121V227C172.344 227.078 172.066 227.117 171.797 227.117C171.312 227.117 170.947 226.971 170.701 226.678C170.455 226.385 170.332 225.969 170.332 225.43V221.498H169.178V220.66H170.332V219.125H171.416ZM176.936 221.633C176.771 221.605 176.594 221.592 176.402 221.592C175.691 221.592 175.209 221.895 174.955 222.5V227H173.871V220.66H174.926L174.943 221.393C175.299 220.826 175.803 220.543 176.455 220.543C176.666 220.543 176.826 220.57 176.936 220.625V221.633ZM179.115 227H178.031V220.66H179.115V227ZM177.943 218.979C177.943 218.803 177.996 218.654 178.102 218.533C178.211 218.412 178.371 218.352 178.582 218.352C178.793 218.352 178.953 218.412 179.062 218.533C179.172 218.654 179.227 218.803 179.227 218.979C179.227 219.154 179.172 219.301 179.062 219.418C178.953 219.535 178.793 219.594 178.582 219.594C178.371 219.594 178.211 219.535 178.102 219.418C177.996 219.301 177.943 219.154 177.943 218.979ZM186.211 223.9C186.211 224.865 185.99 225.643 185.549 226.232C185.107 226.822 184.51 227.117 183.756 227.117C182.986 227.117 182.381 226.873 181.939 226.385V229.438H180.855V220.66H181.846L181.898 221.363C182.34 220.816 182.953 220.543 183.738 220.543C184.5 220.543 185.102 220.83 185.543 221.404C185.988 221.979 186.211 222.777 186.211 223.801V223.9ZM185.127 223.777C185.127 223.062 184.975 222.498 184.67 222.084C184.365 221.67 183.947 221.463 183.416 221.463C182.76 221.463 182.268 221.754 181.939 222.336V225.365C182.264 225.943 182.76 226.232 183.428 226.232C183.947 226.232 184.359 226.027 184.664 225.617C184.973 225.203 185.127 224.59 185.127 223.777ZM190.225 227.117C189.365 227.117 188.666 226.836 188.127 226.273C187.588 225.707 187.318 224.951 187.318 224.006V223.807C187.318 223.178 187.438 222.617 187.676 222.125C187.918 221.629 188.254 221.242 188.684 220.965C189.117 220.684 189.586 220.543 190.09 220.543C190.914 220.543 191.555 220.814 192.012 221.357C192.469 221.9 192.697 222.678 192.697 223.689V224.141H188.402C188.418 224.766 188.6 225.271 188.947 225.658C189.299 226.041 189.744 226.232 190.283 226.232C190.666 226.232 190.99 226.154 191.256 225.998C191.521 225.842 191.754 225.635 191.953 225.377L192.615 225.893C192.084 226.709 191.287 227.117 190.225 227.117ZM190.09 221.434C189.652 221.434 189.285 221.594 188.988 221.914C188.691 222.23 188.508 222.676 188.438 223.25H191.613V223.168C191.582 222.617 191.434 222.191 191.168 221.891C190.902 221.586 190.543 221.434 190.09 221.434Z" fill="black"/>
<defs>
<filter id="filter0_d" x="151" y="133" width="144" height="28" filterUnits="userSpaceOnUse" color-interpolation-filters="sRGB">
<feFlood flood-opacity="0" result="BackgroundImageFix"/>
<feColorMatrix in="SourceAlpha" type="matrix" values="0 0 0 0 0 0 0 0 0 0 0 0 0 0 0 0 0 0 127 0"/>
<feOffset/>
<feGaussianBlur stdDeviation="2"/>
<feColorMatrix type="matrix" values="0 0 0 0 0.0941176 0 0 0 0 0.564706 0 0 0 0 1 0 0 0 0.2 0"/>
<feBlend mode="normal" in2="BackgroundImageFix" result="effect1_dropShadow"/>
<feBlend mode="normal" in="SourceGraphic" in2="effect1_dropShadow" result="shape"/>
</filter>
<filter id="filter1_d" x="151" y="156" width="141" height="92" filterUnits="userSpaceOnUse" color-interpolation-filters="sRGB">
<feFlood flood-opacity="0" result="BackgroundImageFix"/>
<feColorMatrix in="SourceAlpha" type="matrix" values="0 0 0 0 0 0 0 0 0 0 0 0 0 0 0 0 0 0 127 0"/>
<feOffset/>
<feGaussianBlur stdDeviation="2"/>
<feColorMatrix type="matrix" values="0 0 0 0 0 0 0 0 0 0 0 0 0 0 0 0 0 0 0.25 0"/>
<feBlend mode="normal" in2="BackgroundImageFix" result="effect1_dropShadow"/>
<feBlend mode="normal" in="SourceGraphic" in2="effect1_dropShadow" result="shape"/>
</filter>
<clipPath id="clip0">
<rect width="15" height="17" fill="white" transform="translate(281 148) rotate(-180)"/>
</clipPath>
</defs>
</svg>
