<svg width="315" height="172" viewBox="0 0 315 172" fill="none" xmlns="http://www.w3.org/2000/svg">
<path fill-rule="evenodd" clip-rule="evenodd" d="M252.782 133.268C250.907 128.992 246.592 126 241.568 126C234.824 126 229.357 131.391 229.357 138.042C229.357 139.004 229.471 139.94 229.687 140.836C224.823 142.02 221.216 146.352 221.216 151.514C221.216 157.588 226.209 162.511 232.367 162.511H268.053C274.212 162.511 279.204 157.588 279.204 151.514C279.204 145.537 274.369 140.674 268.346 140.52C267.068 135.77 262.678 132.269 257.459 132.269C255.79 132.269 254.206 132.626 252.782 133.268Z" fill="#F5F9FF"/>
<path fill-rule="evenodd" clip-rule="evenodd" d="M108.558 110.359C106.661 106.083 102.292 103.091 97.2056 103.091C90.3783 103.091 84.8437 108.482 84.8437 115.133C84.8437 116.095 84.9595 117.03 85.1782 117.927C80.254 119.111 76.6025 123.442 76.6025 128.605C76.6025 134.678 81.6569 139.602 87.8919 139.602H124.018C130.253 139.602 135.307 134.678 135.307 128.605C135.307 122.628 130.412 117.765 124.315 117.611C123.021 112.86 118.577 109.359 113.293 109.359C111.604 109.359 110 109.717 108.558 110.359Z" fill="#F5F9FF"/>
<path fill-rule="evenodd" clip-rule="evenodd" d="M71.3305 33.7568C69.4331 29.4806 65.0643 26.4883 59.978 26.4883C53.1508 26.4883 47.6162 31.8797 47.6162 38.5304C47.6162 39.4923 47.732 40.4279 47.9507 41.3246C43.0265 42.5082 39.375 46.8398 39.375 52.0022C39.375 58.0759 44.4294 62.9996 50.6643 62.9996H86.7902C93.0251 62.9996 98.0795 58.0759 98.0795 52.0022C98.0795 46.0253 93.1848 41.162 87.0872 41.0086C85.7935 36.2579 81.3491 32.7568 76.0653 32.7568C74.3761 32.7568 72.7726 33.1146 71.3305 33.7568Z" fill="#F5F9FF"/>
<path fill-rule="evenodd" clip-rule="evenodd" d="M220.955 27.3144C219.058 23.0383 214.689 20.0459 209.603 20.0459C202.776 20.0459 197.241 25.4373 197.241 32.088C197.241 33.0499 197.357 33.9855 197.576 34.8822C192.651 36.0658 189 40.3974 189 45.5598C189 51.6335 194.054 56.5572 200.289 56.5572H236.415C242.65 56.5572 247.704 51.6335 247.704 45.5598C247.704 39.5829 242.81 34.7196 236.712 34.5662C235.419 29.8155 230.974 26.3144 225.69 26.3144C224.001 26.3144 222.398 26.6723 220.955 27.3144Z" fill="#F5F9FF"/>
<rect x="62.5684" y="132.728" width="186.284" height="37.375" rx="9" fill="white" stroke="#B3BFC5" stroke-width="2"/>
<circle cx="81.6137" cy="151.773" r="11.4545" fill="#EDE9E9"/>
<circle cx="77.6764" cy="149.982" r="1.07386" fill="#C4C4C4"/>
<circle cx="85.5504" cy="149.982" r="1.07386" fill="#C4C4C4"/>
<path d="M78.75 155.352C79.5852 156.187 81.9 157.356 84.4773 155.352" stroke="#C4C4C4" stroke-linecap="round"/>
<line x1="103.626" y1="146.943" x2="232.853" y2="146.943" stroke="#DDDCDC" stroke-width="2.5" stroke-linecap="round"/>
<line x1="103.626" y1="156.966" x2="232.853" y2="156.966" stroke="#DDDCDC" stroke-width="2.5" stroke-linecap="round"/>
<rect x="127.716" y="76.1699" width="186.284" height="38.0909" rx="9" fill="#F1F5F7" stroke="#B3BFC5" stroke-width="2"/>
<circle cx="146.761" cy="95.2162" r="11.4545" fill="#EDE9E9"/>
<circle cx="142.825" cy="93.4264" r="1.07386" fill="#C4C4C4"/>
<circle cx="150.699" cy="93.4264" r="1.07386" fill="#C4C4C4"/>
<path d="M143.897 98.7959C144.733 99.6311 147.047 100.8 149.625 98.7959" stroke="#C4C4C4" stroke-linecap="round"/>
<line x1="169.488" y1="90.3867" x2="298.715" y2="90.3867" stroke="#DDDCDC" stroke-width="2.5" stroke-linecap="round"/>
<line x1="169.488" y1="100.409" x2="298.715" y2="100.409" stroke="#DDDCDC" stroke-width="2.5" stroke-linecap="round"/>
<rect x="1" y="46.1016" width="186.284" height="37.375" rx="9" fill="white" stroke="#B3BFC5" stroke-width="2"/>
<circle cx="20.0454" cy="65.1479" r="11.4545" fill="#EDE9E9"/>
<circle cx="16.108" cy="63.358" r="1.07386" fill="#C4C4C4"/>
<circle cx="23.983" cy="63.358" r="1.07386" fill="#C4C4C4"/>
<path d="M17.54 69.4434C18.3753 70.2786 20.69 71.4479 23.2673 69.4434" stroke="#C4C4C4" stroke-linecap="round"/>
<line x1="42.7725" y1="59.6016" x2="172" y2="59.6016" stroke="#DDDCDC" stroke-width="2.5" stroke-linecap="round"/>
<line x1="42.7725" y1="69.625" x2="172" y2="69.625" stroke="#DDDCDC" stroke-width="2.5" stroke-linecap="round"/>
<path opacity="0.3" d="M39.614 100.475L41.5892 105.402L46.9272 107.225L41.5892 109.049L39.614 113.976L37.6388 109.049L32.3008 107.225L37.6388 105.402L39.614 100.475Z" fill="#2F80ED"/>
<path opacity="0.25" d="M20.0186 29.3477L23.2985 37.4728L32.1623 40.4793L23.2985 43.4859L20.0186 51.611L16.7388 43.4859L7.875 40.4793L16.7388 37.4728L20.0186 29.3477Z" fill="#F2C94C"/>
<path opacity="0.25" d="M95.3006 13.0488L97.2139 18.3868L102.384 20.362L97.2139 22.3373L95.3006 27.6753L93.3873 22.3373L88.2168 20.362L93.3873 18.3868L95.3006 13.0488Z" fill="#6FCF97"/>
<path opacity="0.25" d="M160.001 0L162.28 6.15921L168.439 8.43832L162.28 10.7174L160.001 16.8766L157.722 10.7174L151.562 8.43832L157.722 6.15921L160.001 0Z" fill="#BB6BD9"/>
<path opacity="0.12" d="M230.002 47.5625L232.325 53.841L238.604 56.1642L232.325 58.4875L230.002 64.766L227.679 58.4875L221.4 56.1642L227.679 53.841L230.002 47.5625Z" fill="#2D9CDB"/>
<path opacity="0.25" d="M32.1404 137.454L34.0537 142.792L39.2242 144.767L34.0537 146.743L32.1404 152.081L30.2272 146.743L25.0566 144.767L30.2272 142.792L32.1404 137.454Z" fill="#6FCF97"/>
<path opacity="0.25" d="M68.3691 118.125L69.4326 120.999L72.3066 122.062L69.4326 123.126L68.3691 126L67.3057 123.126L64.4316 122.062L67.3057 120.999L68.3691 118.125Z" fill="#BB6BD9"/>
<path opacity="0.15" d="M291.223 63.001L293.502 68.7496L299.661 70.8767L293.502 73.0039L291.223 78.7525L288.943 73.0039L282.784 70.8767L288.943 68.7496L291.223 63.001Z" fill="#F2994A"/>
</svg>
