<?xml version="1.0" encoding="iso-8859-1"?>
<!-- Generator: Adobe Illustrator 19.1.0, SVG Export Plug-In . SVG Version: 6.00 Build 0)  -->
<svg version="1.1" id="Capa_1" xmlns="http://www.w3.org/2000/svg" xmlns:xlink="http://www.w3.org/1999/xlink" x="0px" y="0px"
	 viewBox="-25 -30 120 120" fill="rgba(0, 0, 0, 0.5)" style="enable-background:new 0 0 67.308 67.308;" xml:space="preserve">
<g>
	<g>
		<path d="M8.82,67.308h49.668c1.104,0,2-0.955,2-2.06c0-17.244-11.565-30.315-15.818-34.528c3.837-3.185,6.286-8.001,6.286-13.366
			C50.956,7.789,43.175,0,33.61,0S16.264,7.778,16.264,17.343c0,5.353,2.439,10.143,6.263,13.328
			C18.194,35.026,6.82,48.15,6.82,65.249C6.82,66.354,7.715,67.308,8.82,67.308z M20.264,17.34c0-7.359,5.987-13.346,13.346-13.346
			S46.956,9.981,46.956,17.34S40.969,30.686,33.61,30.686S20.264,24.699,20.264,17.34z M25.979,32.953
			c2.306,1.136,4.89,1.763,7.63,1.763c2.727,0,5.297-0.605,7.595-1.731c2.927,2.812,14.304,14.323,15.224,30.323H10.879
			C11.788,48.308,22.867,35.999,25.979,32.953z"/>
	</g>
</g>
</svg>
