<?xml version="1.0" encoding="UTF-8"?>
<!DOCTYPE svg PUBLIC "-//W3C//DTD SVG 1.1//EN" "http://www.w3.org/Graphics/SVG/1.1/DTD/svg11.dtd">
<!-- Creator: CorelDRAW 2018 (64-Bit) -->
<svg xmlns="http://www.w3.org/2000/svg" xml:space="preserve" width="10in" height="10in" version="1.1" style="shape-rendering:geometricPrecision; text-rendering:geometricPrecision; image-rendering:optimizeQuality; fill-rule:evenodd; clip-rule:evenodd"
viewBox="0 0 10000 10000"
 xmlns:xlink="http://www.w3.org/1999/xlink">
 <defs>
  <style type="text/css">
   <![CDATA[
    .str0 {stroke:#51312B;stroke-width:291.67;stroke-miterlimit:2.61313}
    .str2 {stroke:#51312B;stroke-width:3;stroke-miterlimit:2.61313}
    .str1 {stroke:#322B2B;stroke-width:3;stroke-miterlimit:2.61313}
    .fil0 {fill:blanchedalmond}
    .fil2 {fill:#E3B76E}
    .fil4 {fill:#51312B}
    .fil5 {fill:#322B2B}
    .fil1 {fill:blanchedalmond;fill-rule:nonzero}
    .fil3 {fill:#824331;fill-rule:nonzero}
   ]]>
  </style>
 </defs>
 <g id="Layer_x0020_1">
  <metadata id="CorelCorpID_0Corel-Layer"/>
  <ellipse class="fil0 str0" cx="4994.75" cy="5004.37" rx="4767.45" ry="4743.95"/>
  <g id="_2893431664528">
   <g>
    <g>
     <g>
      <path class="fil1" d="M9045.98 4756.67c-231.36,380.52 -563.91,699.35 -972.02,914.36 -24.27,28.81 -68.57,38.98 -122.39,-26.32 -10.89,-13.22 -26.4,-33.17 -44.84,-59.59 -90.63,-129.86 -253.31,-419.57 -272.09,-832.04 -14.04,-308.3 35.93,-620.07 143.14,-860.07 96.43,-215.86 239.77,-375.96 426.25,-430.63 126.51,-265.24 252.76,-544.65 252.76,-1026.57 0,-129.07 -15.85,-243.54 -38.68,-347.64 -23.58,-107.46 -53.75,-202.32 -82.07,-290.97l-0.16 0.05c-9.11,-27.87 -13.12,-39.82 -16.93,-51.17 -37.26,-111 -65.47,-195.06 -65.47,-326.69 0,-87.94 19.96,-154.52 63.48,-202.14 45.03,-49.26 109.23,-72.74 196.13,-72.74 88.13,0 155.31,38.39 205.34,88.02 45.59,45.23 75.66,99.96 93.56,140.27l0.28 0.28 4.52 10.35c223.92,512.12 593.7,1357.83 593.7,2068.88l-0.28 0c0.8,468.86 -129.54,918.32 -364.24,1304.36z"/>
      <path class="fil2" d="M8210.29 5978.14l-188.06 -360.85c809.76,-418.02 1317.86,-1253.69 1316.3,-2164.98 0,-701.36 -370.96,-1544.99 -592.07,-2050.71 -30.45,-68.56 -101.62,-185.52 -233.77,-185.52 -132.14,0 -188.05,63.57 -188.05,203.31 0,139.74 35.58,223.64 78.76,355.78 58.44,182.91 124.55,391.29 124.55,660.64 0,515.84 -139.74,805.59 -274.48,1087.59l-373.5 -162.59 7.59 -15.26c132.14,-271.88 233.83,-487.85 233.83,-909.74 0,-205.77 -53.38,-373.5 -104.22,-536.17 -50.85,-162.59 -101.62,-307.47 -101.62,-480.26 0,-365.9 238.82,-609.87 594.61,-609.87 261.76,0 487.93,160.06 607.34,429.48 236.29,533.63 627.66,1425.51 627.66,2213.31 1.64,1062.88 -590.66,2037.68 -1534.87,2525.83l0 -0.02zm0 0z"/>
     </g>
     <g>
      <path class="fil1" d="M1030.12 4756.67c231.36,380.52 563.91,699.35 972.02,914.36 24.27,28.81 68.57,38.98 122.38,-26.32 10.9,-13.22 26.4,-33.17 44.84,-59.59 90.63,-129.86 253.31,-419.57 272.09,-832.04 14.04,-308.3 -35.93,-620.07 -143.14,-860.07 -96.43,-215.86 -239.77,-375.96 -426.25,-430.63 -126.5,-265.24 -252.75,-544.65 -252.75,-1026.57 0,-129.07 15.85,-243.54 38.68,-347.64 23.58,-107.46 53.75,-202.32 82.07,-290.97l0.16 0.05c9.11,-27.87 13.12,-39.82 16.93,-51.17 37.26,-111 65.48,-195.06 65.48,-326.69 0,-87.94 -19.96,-154.52 -63.48,-202.14 -45.03,-49.26 -109.23,-72.74 -196.13,-72.74 -88.13,0 -155.31,38.39 -205.34,88.02 -45.59,45.23 -75.66,99.96 -93.56,140.27l-0.28 0.28 -4.52 10.35c-223.92,512.12 -593.7,1357.83 -593.7,2068.88l0.28 0c-0.8,468.86 129.54,918.32 364.24,1304.36z"/>
      <path class="fil2" d="M1865.81 5978.14l188.06 -360.85c-809.76,-418.02 -1317.86,-1253.69 -1316.3,-2164.98 0,-701.36 370.96,-1544.99 592.07,-2050.71 30.45,-68.56 101.62,-185.52 233.77,-185.52 132.14,0 188.05,63.57 188.05,203.31 0,139.74 -35.59,223.64 -78.76,355.78 -58.44,182.91 -124.55,391.29 -124.55,660.64 0,515.84 139.74,805.59 274.48,1087.59l373.5 -162.59 -7.59 -15.26c-132.15,-271.88 -233.83,-487.85 -233.83,-909.74 0,-205.77 53.37,-373.5 104.22,-536.17 50.85,-162.59 101.62,-307.47 101.62,-480.26 0,-365.9 -238.82,-609.87 -594.6,-609.87 -261.76,0 -487.93,160.06 -607.34,429.48 -236.29,533.63 -627.66,1425.51 -627.66,2213.31 -1.64,1062.88 590.66,2037.68 1534.87,2525.83l0 -0.02zm0 0z"/>
     </g>
     <g>
      <path class="fil3" d="M6780.46 8333.5c-128.29,315.42 -322.38,521.78 -581.67,617.92l-136.43 50.59 43.33 -138.93c53.67,-172.04 80.61,-348.58 94.16,-510.56 10.97,-131.13 13.13,-253.54 13.55,-356.5l-263.73 0.01c-4.16,364.72 -41.74,680.47 -150.91,931.14 -120.24,276.11 -324.11,470.61 -659.07,560.85l-67.28 18.12 -75.58 -257.63 0 -0.28c-27.22,-93.98 -72.56,-180.87 -132.57,-256.28 -59.96,-75.35 -134.38,-139 -219.82,-186.62 -80.33,-44.93 -145.37,-109.81 -190.34,-186.46 -44.93,-76.59 -69.83,-165 -69.91,-257.06l-0.28 0 0 -365.51 -263.43 0 0 365.51 -0.28 0c0.09,98.11 19.09,193.97 54.39,283.15 35.87,90.63 88.19,173.51 154.23,244.04l-58.43 119.65c-346.26,-31.39 -613.15,-254.85 -798.18,-579.39 -203.8,-357.46 -308.04,-839.58 -308.04,-1317.64l0 -131.75 -263.42 0 0 131.75c0,41.3 0.47,77.19 1.4,107.67 1.03,33.83 2.72,70.04 5.04,108.46l-125.52 50.59c-204.59,-239 -363.44,-507.3 -471,-793.98 -106.81,-284.68 -162.92,-586.83 -162.92,-895.79l0.28 0c0.38,-279.45 46.19,-554.91 133.98,-816.06 87.92,-261.56 217.74,-508.77 385.99,-731.33l0.13 0.1 158.02 -210.75 -678.3 0 0.17 -71.56c0.68,-285.5 111.22,-546.46 292.69,-741.09 181.64,-194.81 434.27,-323.45 718.88,-344.09l173.87 -11.58 -56.1 -163.29 0 -0.28c-34.1,-99.95 -87.51,-197.7 -156.47,-289.78 -71.17,-95.03 -159.17,-184.36 -259.94,-264.25l-68.36 -54.2 66.68 -56.22c72.2,-60.88 157.55,-106.11 256.05,-136.01 96.33,-29.24 204.22,-43.7 323.71,-43.7l0 0.28c67.26,-0.24 133.85,7.17 198.46,21.94 65.26,14.92 128.57,37.17 188.64,66.41l-0.06 0.11 147.07 71.02 39.48 -156.31 0 -0.28c54.23,-212.21 169.62,-397.75 325.67,-538.15 155.98,-140.33 352.7,-235.55 569.64,-267.17l109.37 -15.94 -30.81 106.52c-28.39,98.14 -45.48,199.1 -51.15,300.91 -5.67,101.48 0.15,203.83 17.52,305.09l43.03 250.02 182.35 -177.35c232.93,-229.59 533.41,-353.94 839.52,-369.81 306.02,-15.86 617.79,76.89 873.38,281.44l106.96 85.6 -131.56 38.52c-122.44,35.85 -239.56,86.52 -348.85,150.54 -109.22,63.98 -210.72,141.41 -302,230.81l-227.6 222.67 317.85 3.28c417.44,3.96 799.83,142.3 1093.39,367.38 300.01,230.03 507.93,550.79 567.28,912.18l13.58 82.75 -874.91 -0 198.14 221.27 0.12 -0.11c216.87,238.03 385.82,512.04 500.98,807.04 115.08,294.76 176.43,610.81 178.18,933.16l0.28 0.28c0,305.19 -56.09,605.28 -162.46,888.87 -107.19,285.75 -265.27,554.05 -468.28,793.19l-125.8 -48.64c1.26,-35.31 2.22,-69.83 2.83,-103.35 0.46,-25.37 0.71,-60.71 0.71,-107.02l0 -132.03 -263.5 0.01 0 132.03c0,509.73 -62.2,917.39 -186.05,1221.87z"/>
      <path class="fil4" d="M6178.03 8884.33c479.24,-177.7 721.02,-771.42 721.02,-1772.69l0 -203.31 406.63 -0.01 0 203.31c0,73.3 -1.37,144.11 -3.82,212.89 393.97,-464.09 613.69,-1039.27 613.69,-1635.94 -3.43,-626.39 -238.82,-1229.33 -660.72,-1692.4l-304.93 -340.52 950.39 0.01c-111.82,-680.97 -782.66,-1212.07 -1590.78,-1219.74l-490.38 -5.06 350.64 -343.05c190.81,-186.86 424.72,-323.92 681.04,-398.96 -482.79,-386.38 -1178.42,-350.34 -1618.69,83.9l-279.55 271.88 -66.03 -383.7c-36.48,-212.62 -24.34,-430.68 35.59,-637.86 -404.99,59.04 -734.72,355.7 -836.04,752.21l-60.97 241.35 -226.17 -109.21c-110.85,-53.97 -232.5,-81.81 -355.78,-81.37 -226.17,0 -404.02,53.38 -533.63,162.67 208.38,165.2 365.91,370.97 439.61,587.02l86.43 251.56 -266.82 17.79c-531.85,38.57 -944.06,480.63 -945.32,1013.89l749.6 0 -243.89 325.26c-327.49,433.2 -504.97,961.33 -505.72,1504.34 0,604.05 219.68,1179.7 616.59,1643.36 -4.45,-73.55 -6.72,-147.12 -6.72,-220.31l0 -203.31 406.55 0 0 203.31c0,877.29 356.99,1764 1041.08,1826.02 -144.04,-153.83 -227.69,-358.72 -227.9,-575.83l0 -437.08 406.56 0 0 437.08c0.15,158.2 85.61,303.97 223.64,381.17 187.68,104.6 326.44,279.03 386.22,485.39l55.91 190.59c622.6,-167.73 757.27,-721.69 757.27,-1494.22l406.56 -0c0,233 -0.1,603.55 -111.16,959.58zm1057.67 -922.17c-194.94,1048.47 -764.19,1347.17 -1286.58,1381.97 -188.64,251.24 -481.95,448.43 -938.11,511.93l-175.32 25.39 -155 -538.7c-4.64,-16.31 -10.27,-32.24 -16.83,-47.7 -97.92,34.27 -201.27,52.24 -305.9,52.75l0 0c-757.71,0 -1217.19,-606.99 -1413.28,-1350.77 -717.37,-580.63 -1127.81,-1416.75 -1127.81,-2308.44 0.07,-498.87 129.61,-989.24 376.03,-1423.05l-376.03 0 0 -406.55c1.49,-632.8 419.29,-1189.22 1026.62,-1367.14 -94.32,-115.4 -208.82,-212.7 -337.99,-287.15l-180.46 -106.68 111.82 -177.93c208.38,-327.79 556.49,-500.58 1006.3,-500.58 108.17,0.15 215.82,14.67 320.2,43.18 225.8,-520.16 739.04,-856.66 1306.09,-856.36 61.2,0.3 122.31,4.54 182.99,12.73l299.87 38.11 -149.94 261.76c-52.93,93.36 -90.68,194.61 -111.82,299.87 731.07,-407.08 1651.6,-193.93 2129.48,492.91l213.44 304.94 -373.57 12.73c-131.99,4.31 -262.43,30.08 -386.23,76.23 836.04,228.7 1448.44,932.59 1448.44,1753.37l0 203.31 -500.58 -0.01c324.89,480.26 499.17,1046.5 500.58,1626.29 0,867.33 -394.1,1691.33 -1086.41,2273.57z"/>
     </g>
    </g>
    <path class="fil4" d="M5069.45 6886.17c-785.19,0 -1422.97,-546.29 -1422.97,-1219.74 0,-673.37 637.78,-1219.74 1422.97,-1219.74 785.27,0 1423.05,546.37 1423.05,1219.74 0,673.45 -637.78,1219.74 -1423.05,1219.74zm0 -2032.85c-561.55,0 -1016.42,365.9 -1016.42,813.11 0,447.28 454.87,813.18 1016.42,813.18 561.63,0 1016.5,-365.9 1016.5,-813.18 0,-447.2 -454.87,-813.11 -1016.5,-813.11zm0 0z"/>
   </g>
   <g>
    <path class="fil5" d="M4866.21 5463.19l-406.63 0 0 406.55 406.63 0 0 -406.55zm0 0z"/>
    <path class="fil5 str1" d="M5679.32 5463.19l-406.55 0 0 406.55 406.55 0 0 -406.55zm0 0z"/>
    <path class="fil5 str2" d="M4256.34 3633.58l-406.63 0 0 406.56 406.63 0 0 -406.56zm0 0z"/>
    <path class="fil5" d="M6289.19 3633.58l-406.56 0 0 406.56 406.56 0 0 -406.56zm0 0z"/>
   </g>
  </g>
 </g>
</svg>
