<?xml version="1.0" encoding="UTF-8"?>
<!DOCTYPE svg PUBLIC "-//W3C//DTD SVG 1.1//EN" "http://www.w3.org/Graphics/SVG/1.1/DTD/svg11.dtd">
<!-- Creator: CorelDRAW 2018 (64-Bit) -->
<svg xmlns="http://www.w3.org/2000/svg" xml:space="preserve" width="10in" height="10in" version="1.1" style="shape-rendering:geometricPrecision; text-rendering:geometricPrecision; image-rendering:optimizeQuality; fill-rule:evenodd; clip-rule:evenodd"
viewBox="0 0 10000 10000"
 xmlns:xlink="http://www.w3.org/1999/xlink">
 <defs>
  <style type="text/css">
   <![CDATA[
    .str1 {stroke:#51312B;stroke-width:3;stroke-miterlimit:2.61313}
    .str0 {stroke:#322B2B;stroke-width:3;stroke-miterlimit:2.61313}
    .fil0 {fill:blanchedalmond}
    .fil4 {fill:#E3B76E}
    .fil5 {fill:#51312B}
    .fil6 {fill:#322B2B}
    .fil3 {fill:blanchedalmond;fill-rule:nonzero}
    .fil2 {fill:#824331;fill-rule:nonzero}
    .fil1 {fill:#51312B;fill-rule:nonzero}
   ]]>
  </style>
 </defs>
 <g id="Layer_x0020_1">
  <metadata id="CorelCorpID_0Corel-Layer"/>
  <path class="fil0" d="M2377.81 7163.04c-705.13,-697.37 -1141.35,-1661.19 -1141.35,-2725.91 0,-2127.93 1742.37,-3852.95 3891.69,-3852.95 2149.32,0 3891.69,1725.02 3891.69,3852.95 0,1064.71 -436.22,2028.54 -1141.35,2725.91l660.28 0c617.02,0 1121.84,504.82 1121.84,1121.83l0 0c0,617.02 -504.82,1121.84 -1121.84,1121.84l-7019.2 0c-617.01,0 -1121.84,-504.82 -1121.84,-1121.84l0 0c0,-617.01 504.83,-1121.83 1121.84,-1121.83l858.24 0z"/>
  <path class="fil1" d="M2052.94 7021.56c-268.91,-313.68 -489.94,-669.35 -651.79,-1055.89 -197.28,-471.17 -306.17,-987.45 -306.17,-1528.54 0,-1102.93 451.65,-2101.53 1181.85,-2824.47 730.12,-722.86 1738.26,-1169.95 2851.31,-1169.95 1113.06,0 2121.19,447.09 2851.31,1169.95 730.2,722.94 1181.85,1721.54 1181.85,2824.47 0,541.08 -108.89,1057.37 -306.17,1528.54 -161.85,386.54 -382.88,742.22 -651.79,1055.89l335.41 0c347.56,0 663.42,142.09 892.32,370.99 228.91,228.91 370.99,544.77 370.99,892.32 0,347.55 -142.08,663.42 -370.99,892.32 -228.9,228.91 -544.77,370.99 -892.32,370.99l-7019.2 0c-347.55,0 -663.42,-142.09 -892.32,-370.99 -228.91,-228.9 -370.99,-544.77 -370.99,-892.32 0,-347.55 142.08,-663.41 370.99,-892.32 228.9,-228.91 544.76,-370.99 892.32,-370.99l533.37 0zm-390.95 -1164.21c189.9,453.55 468.62,862.13 814.82,1204.64 26.2,25.68 42.47,61.46 42.47,101.04 0,78.13 -63.34,141.47 -141.47,141.47l-858.24 0c-269.46,0 -514.52,110.33 -692.28,288.09 -177.75,177.76 -288.09,422.82 -288.09,692.28 0,269.46 110.33,514.52 288.09,692.28 177.76,177.76 422.82,288.09 692.28,288.09l7019.2 0c269.46,0 514.52,-110.33 692.28,-288.09 177.76,-177.75 288.09,-422.81 288.09,-692.28 0,-269.46 -110.33,-514.52 -288.09,-692.28 -177.75,-177.75 -422.81,-288.09 -692.28,-288.09l-660.28 0c-36.46,-0.03 -72.91,-14.03 -100.58,-42 -54.94,-55.54 -54.44,-145.11 1.11,-200.05 346.42,-342.61 625.3,-751.35 815.29,-1205.11 183.04,-437.14 284.06,-916.81 284.06,-1420.22 0,-1025 -419.54,-1952.87 -1097.85,-2624.42 -678.39,-671.63 -1616.11,-1087.06 -2652.37,-1087.06 -1036.25,0 -1973.98,415.42 -2652.37,1087.06 -678.31,671.55 -1097.85,1599.42 -1097.85,2624.42 0,503.41 101.02,983.08 284.06,1420.22z"/>
  <path class="fil2" d="M1508.08 8997.63c0,0 -0.9,0 -2.69,0 -1.8,0 -3.3,0.6 -4.49,1.8l-5.39 1.8c-3.59,0 -5.39,-1.2 -5.39,-3.59 -4.79,-2.39 -7.79,-5.99 -8.98,-10.78 -41.93,-7.19 -68.88,-13.18 -80.86,-17.97l-62.89 -17.97 -8.98 0c-5.99,0 -10.78,-1.2 -14.37,-3.59 -10.78,0 -19.77,-1.2 -26.95,-3.59 -9.59,-1.2 -25.16,-5.39 -46.72,-12.58 -21.56,-7.19 -37.14,-12.58 -46.72,-16.17 -19.17,-5.99 -46.72,-16.17 -82.66,-30.55 -16.77,-7.19 -29.35,-11.98 -37.74,-14.37l-41.33 -25.16c-9.58,-7.19 -14.37,-14.38 -14.37,-21.56 0,-22.76 5.39,-46.72 16.17,-71.88 3.59,-8.39 8.69,-18.57 15.28,-30.55 6.59,-11.98 12.88,-25.76 18.87,-41.33 2.4,-7.19 8.99,-17.97 19.77,-32.35 28.75,-47.92 44.32,-74.27 46.72,-79.06 4.79,-13.18 7.19,-25.16 7.19,-35.94 0,-17.97 -9.59,-36.54 -28.75,-55.7 -17.97,-17.97 -26.95,-35.34 -26.95,-52.11 -5.99,0 -8.98,0.6 -8.98,1.8l-3.59 0 -1.8 0c-2.39,-2.4 -3.59,-4.79 -3.59,-7.19 -38.33,-47.92 -77.27,-106.02 -116.8,-174.3 -50.31,-79.06 -91.04,-150.94 -122.19,-215.63 -9.59,-14.37 -20.96,-40.13 -34.14,-77.27 -15.57,-32.35 -28.75,-65.29 -39.54,-98.83 -13.18,-37.14 -19.76,-61.09 -19.76,-71.88 0,-11.98 13.18,-27.55 39.53,-46.72 10.78,-7.19 23.36,-14.37 37.74,-21.56 14.37,-7.19 25.16,-12.58 32.34,-16.17 5.99,-1.2 31.15,-7.79 75.47,-19.76l25.16 -8.98c4.79,-3.59 10.18,-5.39 16.17,-5.39 7.19,0 18.57,-2.39 34.14,-7.19 34.74,-7.19 55.11,-11.98 61.09,-14.38l64.69 -14.37c35.94,-11.98 56.9,-18.57 62.89,-19.77l3.59 -1.8 5.39 0 3.59 0c25.16,0 41.93,5.99 50.31,17.97 7.19,7.19 19.17,23.96 35.94,50.31 2.39,7.19 6.89,15.57 13.48,25.16 6.59,9.58 11.08,15.57 13.48,17.97l14.38 19.77 12.57 14.37c4.8,5.99 9.59,13.18 14.38,21.56 4.79,8.39 10.18,17.37 16.17,26.95 31.15,55.11 55.1,94.04 71.87,116.8 10.78,15.57 19.77,23.36 26.96,23.36 3.59,0 9.58,-6.59 17.97,-19.77 10.78,-16.77 30.55,-55.11 59.3,-115 15.57,-38.33 34.14,-82.06 55.7,-131.17 10.78,-21.56 16.77,-34.74 17.97,-39.53 4.79,-21.56 10.18,-35.34 16.17,-41.33 5.99,-9.58 16.77,-14.37 32.34,-14.37 38.33,0 88.65,7.78 150.94,23.36 61.09,17.97 119.8,41.33 176.1,70.08 57.5,31.15 96.43,59.9 116.8,86.26 0,32.34 -7.79,62.29 -23.36,89.85l-165.32 364.78 -161.72 366.57 -7.19 1.8c-1.2,0 -2.99,1.2 -5.39,3.59 -79.06,154.54 -151.54,293.5 -217.43,416.89 -2.39,4.79 -9.58,7.19 -21.56,7.19l0 -10.78z"/>
  <path id="1" class="fil2" d="M2009.43 8839.5c-22.76,0 -31.75,-20.36 -26.96,-61.09 0,-14.37 3,-30.55 8.98,-48.52 0,-8.39 0.6,-15.28 1.8,-20.67 1.2,-5.39 1.8,-9.88 1.8,-13.48 27.56,-130.58 58.1,-259.36 91.65,-386.34l122.19 -477.98c0,-2.4 1.8,-5.39 5.39,-8.98 3.59,-3.59 7.19,-6.59 10.78,-8.98l12.58 0c14.37,0 25.76,-1.8 34.14,-5.39 7.19,-1.2 19.77,-1.8 37.74,-1.8 28.75,0 50.31,0.6 64.69,1.8 21.56,3.59 43.72,5.39 66.48,5.39l93.44 -1.8c9.58,-2.39 20.96,-3.59 34.14,-3.59l79.07 -3.59 59.3 0c22.76,0 44.92,0.6 66.48,1.8l50.31 0c11.98,1.2 29.35,1.8 52.11,1.8l68.28 0c3.59,0 7.19,0.6 10.78,1.8 3.59,1.2 6.59,2.39 8.99,3.59 4.79,2.39 10.78,3.59 17.97,3.59l16.17 0c8.39,5.99 12.58,11.98 12.58,17.97l127.58 474.39c39.54,152.14 70.68,280.92 93.44,386.34 0,5.99 1.8,17.37 5.39,34.14 4.8,23.96 7.19,43.13 7.19,57.5 0,8.39 -1.2,19.77 -3.59,34.14 -5.99,11.98 -14.37,17.97 -25.16,17.97l-19.76 0c-15.57,0 -27.56,-0.6 -35.94,-1.8l-39.53 0 -37.74 0 -30.55 0c-8.39,0 -13.18,-0.6 -14.37,-1.8l-98.83 0 -1.8 -3.59c-2.39,-2.4 -5.99,-3.59 -10.78,-3.59l-5.39 3.59c0,2.39 -1.2,3.59 -3.59,3.59l-5.39 0 -12.58 0c-5.99,-2.4 -16.77,-3.59 -32.34,-3.59 -28.75,-2.4 -52.71,-3.59 -71.88,-3.59 -13.18,-27.56 -28.75,-88.05 -46.72,-181.49 -25.16,3.59 -53.91,5.39 -86.25,5.39l-46.72 0 -44.92 0c-4.8,17.97 -7.79,32.94 -8.98,44.92 -1.2,5.99 -5.99,26.35 -14.38,61.1 -8.39,34.74 -16.17,58.1 -23.36,70.08l-10.78 3.59c-3.59,1.2 -6.59,2.09 -8.98,2.69 -2.39,0.6 -3.59,0.9 -3.59,0.9l-3.59 0c-7.19,0 -11.98,-1.2 -14.37,-3.59 -4.79,-2.4 -7.79,-3.59 -8.98,-3.59l-68.28 3.59 -50.31 0c-5.99,1.2 -10.78,2.09 -14.37,2.69 -3.59,0.6 -5.99,0.9 -7.19,0.9l-143.75 0 -14.38 0c-10.78,1.2 -32.94,1.8 -66.48,1.8l-43.13 0c-7.19,1.2 -18.57,1.8 -34.14,1.8l-21.56 0zm722.36 -384.54c-7.19,-40.73 -11.38,-64.69 -12.58,-71.88l-14.37 -86.25c-2.39,-16.77 -4.79,-32.05 -7.19,-45.82 -2.39,-13.78 -4.19,-26.65 -5.39,-38.63 -3.59,-14.38 -6.29,-27.85 -8.09,-40.43 -1.8,-12.58 -3.89,-24.26 -6.29,-35.04 -1.2,-7.19 -2.4,-16.47 -3.59,-27.85 -1.2,-11.38 -3,-19.47 -5.39,-24.26l-3.59 -21.56c0,-4.79 -1.2,-8.98 -3.59,-12.58l-1.8 -10.78c-2.4,7.19 -3.59,10.78 -3.59,10.78l0 7.19 0 5.39c0,1.2 -0.6,3.3 -1.8,6.29 -1.2,3 -2.39,8.09 -3.59,15.28 -1.2,5.99 -2.4,13.48 -3.59,22.46 -1.2,8.98 -3,18.87 -5.39,29.65l-12.58 73.67 -14.37 82.66 -5.39 39.53c-2.4,9.58 -4.79,25.16 -7.19,46.72 -10.78,53.91 -15.57,78.46 -14.37,73.67l79.06 0c1.2,-1.2 3,-2.7 5.39,-4.49 2.39,-1.8 4.19,-2.7 5.39,-2.7l5.39 0c5.99,0 11.08,0.6 15.28,1.8 4.19,1.2 8.09,2.39 11.68,3.59 7.19,2.39 14.38,3.59 21.56,3.59z"/>
  <path id="2" class="fil2" d="M4136.98 8832.31c-2.39,-5.99 -5.39,-8.98 -8.98,-8.98l-1.8 -3.59c-1.2,0 -2.7,-0.9 -4.49,-2.7 -1.8,-1.8 -3.3,-2.69 -4.49,-2.69l-141.96 -161.72c-1.2,-2.4 -5.99,-8.39 -14.38,-17.97 -8.39,-9.59 -14.97,-16.77 -19.76,-21.57 -10.78,-10.78 -17.97,-18.57 -21.56,-23.36 -8.39,-5.99 -13.78,-8.98 -16.17,-8.98 -7.19,0 -10.78,4.19 -10.78,12.58l0 37.74c-2.39,13.18 -3.59,32.34 -3.59,57.5 -1.2,14.37 -1.8,33.54 -1.8,57.5 -1.2,11.98 -1.8,24.56 -1.8,37.73l0 12.58 0 16.17c0,16.77 -1.8,25.16 -5.39,25.16l-5.39 0 -8.98 0 -8.98 0 -7.19 0c-34.74,3.59 -86.25,5.39 -154.54,5.39l-156.33 0 -26.96 0 -32.34 0 -26.96 0 -12.57 0 -68.28 -16.17 -5.39 -12.57 0 -17.97c-1.2,-7.19 -1.8,-22.16 -1.8,-44.92 -1.2,-23.96 -1.8,-67.69 -1.8,-131.18 0,-29.95 -1.2,-52.11 -3.59,-66.48l0 -53.91c-3.59,-182.09 -5.39,-368.37 -5.39,-558.85l0 -43.13c-2.39,-11.98 -3.59,-25.16 -3.59,-39.53l0 -7.19 0 -12.58 0 -12.57c0,-2.4 1.2,-4.19 3.59,-5.39 2.4,-9.58 6.89,-16.47 13.48,-20.67 6.59,-4.19 15.27,-7.48 26.06,-9.88 4.79,0 9.28,0.6 13.48,1.8 4.19,1.2 9.28,1.8 15.27,1.8 16.77,2.4 26.96,3.59 30.55,3.59l305.48 0 138.36 1.8c2.4,0 4.19,0.6 5.39,1.8 1.2,1.2 1.8,2.99 1.8,5.39 4.79,11.98 7.19,24.56 7.19,37.74 1.2,5.99 1.8,14.37 1.8,25.16 0,51.51 -0.6,89.85 -1.8,115 -4.8,32.35 -7.19,64.69 -7.19,97.04 14.37,0 25.76,-3 34.14,-8.98 1.2,-1.2 3,-2.39 5.39,-3.59 2.4,-1.2 4.19,-2.99 5.39,-5.39 2.4,-3.59 7.79,-8.39 16.17,-14.37l26.95 -26.96c41.93,-37.13 61.1,-54.5 57.5,-52.11l143.76 -134.77c13.18,-10.78 24.85,-20.37 35.04,-28.75 10.18,-8.39 18.87,-15.57 26.06,-21.56 20.37,-14.37 32.94,-21.56 37.74,-21.56 5.99,0 12.58,5.99 19.76,17.97 11.98,11.98 19.17,19.77 21.56,23.36 10.78,20.37 25.76,39.83 44.93,58.4 19.17,18.57 31.15,30.25 35.94,35.04 20.37,22.76 35.94,41.33 46.72,55.7 10.78,14.38 19.77,30.55 26.95,48.52l0 3.59c0,17.97 -13.78,40.73 -41.33,68.28 -7.19,7.19 -13.48,13.18 -18.87,17.97 -5.39,4.79 -9.88,8.98 -13.48,12.58l-26.95 26.95c-3.59,0 -8.39,4.19 -14.37,12.58l-61.1 50.31c-22.76,20.36 -42.53,37.13 -59.3,50.31l-14.37 12.58 -12.58 8.98c-9.58,3.59 -15.57,6.59 -17.97,8.99 0,2.39 -0.6,4.79 -1.8,7.19 -1.2,2.4 -1.8,5.39 -1.8,8.98 0,8.39 2.7,16.47 8.09,24.26 5.39,7.79 11.08,15.28 17.07,22.46 3.59,4.79 11.38,10.78 23.36,17.97 0,0 5.99,5.99 17.97,17.97l30.55 26.95 59.3 52.11 52.11 48.52 61.09 59.3c20.37,21.56 35.04,38.63 44.02,51.21 8.98,12.58 13.48,23.06 13.48,31.45 0,11.98 -4.19,20.96 -12.57,26.95 -19.17,17.97 -35.94,31.74 -50.31,41.33 -23.96,16.77 -41.93,29.95 -53.91,39.53 -44.32,34.74 -77.27,58.1 -98.83,70.08 -4.79,1.2 -21.56,8.39 -50.31,21.56l-28.75 14.38c-8.39,4.79 -13.18,7.19 -14.38,7.19 -14.37,7.19 -25.76,10.78 -34.14,10.78 -5.99,0 -10.78,-1.8 -14.37,-5.39l-35.94 -37.74z"/>
  <path id="3" class="fil2" d="M5143.26 8880.83c-105.42,0 -192.27,-9.58 -260.56,-28.75 -91.04,-25.16 -161.72,-73.67 -212.04,-145.55 -56.3,-80.26 -84.46,-197.06 -84.46,-350.4 0,-93.44 12.58,-177.59 37.74,-252.47 25.16,-74.87 61.69,-138.06 109.61,-189.57 47.92,-50.31 103.62,-88.65 167.11,-115 63.49,-26.35 132.37,-39.53 206.65,-39.53 124.59,0 253.96,38.93 388.14,116.8l-23.36 201.26 -41.33 -8.98c-4.79,-1.2 -23.36,-5.39 -55.7,-12.58 -32.34,-7.19 -61.69,-10.78 -88.05,-10.78 -56.3,0 -98.23,19.17 -125.79,57.5 -35.94,47.92 -53.91,125.19 -53.91,231.8 0,87.45 12.58,153.34 37.74,197.67 23.96,37.13 56.3,55.7 97.03,55.7 28.75,0 62.3,-9.59 100.63,-28.75 37.14,-17.97 73.07,-38.93 107.81,-62.89l17.97 255.17c-41.93,39.53 -93.44,70.68 -154.54,93.44 -55.11,23.96 -112.01,35.94 -170.71,35.94z"/>
  <path id="4" class="fil2" d="M5860.24 8843.09c-50.31,0 -92.54,-1.2 -126.68,-3.59 -34.14,-2.39 -66.19,-7.78 -96.14,-16.17 -4.79,0 -8.39,-2.7 -10.78,-8.09 -2.4,-5.39 -4.19,-9.28 -5.39,-11.68 -1.2,-5.99 -1.8,-13.18 -1.8,-21.56 -7.19,-120.99 -13.78,-215.03 -19.77,-282.12 -5.99,-79.06 -8.98,-177.9 -8.98,-296.49l0 -44.93 1.8 -68.28 3.59 -80.86 1.8 -44.92c1.2,-8.39 1.8,-21.56 1.8,-39.53l0 -68.28c0,-22.76 0.6,-37.74 1.8,-44.93 0,-3.59 2.39,-5.39 7.19,-5.39 10.78,0 20.36,-2.4 28.75,-7.19 3.59,0 9.28,-0.3 17.07,-0.9 7.79,-0.6 14.68,-0.3 20.67,0.9l59.3 0 95.24 0 52.11 0 100.63 0c21.56,0 37.74,0.6 48.52,1.8l53.91 1.8c13.18,0 23.06,0.9 29.65,2.7 6.59,1.8 11.68,5.69 15.27,11.68 3.59,3.59 5.99,10.78 7.19,21.56 1.2,10.78 1.8,22.76 1.8,35.94l0 14.37 0 25.16c0,11.98 0.6,20.37 1.8,25.16l0 17.97 0 12.58c1.2,4.79 1.8,10.78 1.8,17.97l-1.8 53.91c-1.2,11.98 -1.8,29.35 -1.8,52.11 0,13.18 1.2,22.16 3.59,26.95 3.59,5.99 8.98,8.99 16.17,8.99 2.4,0 8.39,-1.2 17.97,-3.59 3.59,0 8.39,-0.6 14.38,-1.8 5.99,-1.2 12.58,-1.8 19.76,-1.8l17.97 0c5.99,2.39 16.77,3.59 32.35,3.59 5.99,0 11.68,-0.6 17.07,-1.8 5.39,-1.2 10.48,-1.8 15.28,-1.8 10.78,0 16.17,-1.2 16.17,-3.59l0 -73.67 0 -26.96c0,-17.97 0.6,-32.34 1.8,-43.13l0 -50.31c1.2,-11.98 1.8,-28.75 1.8,-50.31 0,-20.37 0.6,-34.14 1.8,-41.33l0 -26.95 5.39 0 8.98 0c7.19,0 10.78,-2.4 10.78,-7.19l86.25 0c35.94,0 62.89,1.2 80.86,3.59 31.15,2.4 56.3,3.59 75.47,3.59l113.21 -3.59c17.97,-2.39 40.13,-3.59 66.48,-3.59l46.72 0c23.96,0 40.13,2.4 48.52,7.19 8.39,4.79 12.58,16.77 12.58,35.94l0 141.96c0,23.96 -0.6,43.13 -1.8,57.5l-1.8 43.13c0,19.17 -1.2,47.92 -3.59,86.25l-1.8 30.55 1.8 28.75 -17.97 569.63c0,3.59 -3.59,11.38 -10.78,23.36 -7.19,9.58 -14.37,14.37 -21.56,14.37l-125.78 0c-46.72,0 -92.84,-1.8 -138.37,-5.39 -29.95,-1.2 -74.87,-1.8 -134.77,-1.8l-30.55 0c-16.77,0 -28.15,-5.99 -34.14,-17.97 -4.8,-15.57 -7.79,-35.94 -8.98,-61.09l-17.97 -296.49 -17.97 0c-28.75,0 -49.72,-0.6 -62.89,-1.8 -11.98,-2.39 -17.97,-3.59 -17.97,-3.59l-73.67 0c-4.79,0 -7.79,1.8 -8.98,5.39 -1.2,3.59 -1.8,7.48 -1.8,11.68 0,4.19 0,7.49 0,9.89l0 298.29 0 34.14c0,3.59 -0.6,6.89 -1.8,9.89 -1.2,2.99 -1.8,5.69 -1.8,8.08 -1.2,3.59 -4.19,5.39 -8.98,5.39 -1.2,0 -3,0.6 -5.39,1.8 -2.39,1.2 -5.39,2.4 -8.98,3.59 -44.32,0 -86.25,1.8 -125.78,5.39l-125.79 0z"/>
  <path id="5" class="fil2" d="M7006.68 8839.5c-22.76,0 -31.75,-20.36 -26.96,-61.09 0,-14.37 3,-30.55 8.98,-48.52 0,-8.39 0.6,-15.28 1.8,-20.67 1.2,-5.39 1.8,-9.88 1.8,-13.48 27.56,-130.58 58.1,-259.36 91.65,-386.34l122.19 -477.98c0,-2.4 1.8,-5.39 5.39,-8.98 3.59,-3.59 7.19,-6.59 10.78,-8.98l12.58 0c14.37,0 25.76,-1.8 34.14,-5.39 7.19,-1.2 19.77,-1.8 37.74,-1.8 28.75,0 50.31,0.6 64.69,1.8 21.56,3.59 43.72,5.39 66.48,5.39l93.44 -1.8c9.58,-2.39 20.96,-3.59 34.14,-3.59l79.07 -3.59 59.3 0c22.76,0 44.92,0.6 66.48,1.8l50.31 0c11.98,1.2 29.35,1.8 52.11,1.8l68.28 0c3.59,0 7.19,0.6 10.78,1.8 3.59,1.2 6.59,2.39 8.99,3.59 4.79,2.39 10.78,3.59 17.97,3.59l16.17 0c8.39,5.99 12.58,11.98 12.58,17.97l127.58 474.39c39.54,152.14 70.68,280.92 93.44,386.34 0,5.99 1.8,17.37 5.39,34.14 4.8,23.96 7.19,43.13 7.19,57.5 0,8.39 -1.2,19.77 -3.59,34.14 -5.99,11.98 -14.37,17.97 -25.16,17.97l-19.76 0c-15.57,0 -27.56,-0.6 -35.94,-1.8l-39.53 0 -37.74 0 -30.55 0c-8.39,0 -13.18,-0.6 -14.37,-1.8l-98.83 0 -1.8 -3.59c-2.39,-2.4 -5.99,-3.59 -10.78,-3.59l-5.39 3.59c0,2.39 -1.2,3.59 -3.59,3.59l-5.39 0 -12.58 0c-5.99,-2.4 -16.77,-3.59 -32.34,-3.59 -28.75,-2.4 -52.71,-3.59 -71.88,-3.59 -13.18,-27.56 -28.75,-88.05 -46.72,-181.49 -25.16,3.59 -53.91,5.39 -86.25,5.39l-46.72 0 -44.92 0c-4.8,17.97 -7.79,32.94 -8.98,44.92 -1.2,5.99 -5.99,26.35 -14.38,61.1 -8.39,34.74 -16.17,58.1 -23.36,70.08l-10.78 3.59c-3.59,1.2 -6.59,2.09 -8.98,2.69 -2.39,0.6 -3.59,0.9 -3.59,0.9l-3.59 0c-7.19,0 -11.98,-1.2 -14.37,-3.59 -4.79,-2.4 -7.79,-3.59 -8.98,-3.59l-68.28 3.59 -50.31 0c-5.99,1.2 -10.78,2.09 -14.37,2.69 -3.59,0.6 -5.99,0.9 -7.19,0.9l-143.75 0 -14.38 0c-10.78,1.2 -32.94,1.8 -66.48,1.8l-43.13 0c-7.19,1.2 -18.57,1.8 -34.14,1.8l-21.56 0zm722.36 -384.54c-7.19,-40.73 -11.38,-64.69 -12.58,-71.88l-14.37 -86.25c-2.39,-16.77 -4.79,-32.05 -7.19,-45.82 -2.39,-13.78 -4.19,-26.65 -5.39,-38.63 -3.59,-14.38 -6.29,-27.85 -8.09,-40.43 -1.8,-12.58 -3.89,-24.26 -6.29,-35.04 -1.2,-7.19 -2.4,-16.47 -3.59,-27.85 -1.2,-11.38 -3,-19.47 -5.39,-24.26l-3.59 -21.56c0,-4.79 -1.2,-8.98 -3.59,-12.58l-1.8 -10.78c-2.4,7.19 -3.59,10.78 -3.59,10.78l0 7.19 0 5.39c0,1.2 -0.6,3.3 -1.8,6.29 -1.2,3 -2.39,8.09 -3.59,15.28 -1.2,5.99 -2.4,13.48 -3.59,22.46 -1.2,8.98 -3,18.87 -5.39,29.65l-12.58 73.67 -14.37 82.66 -5.39 39.53c-2.4,9.58 -4.79,25.16 -7.19,46.72 -10.78,53.91 -15.57,78.46 -14.37,73.67l79.06 0c1.2,-1.2 3,-2.7 5.39,-4.49 2.39,-1.8 4.19,-2.7 5.39,-2.7l5.39 0c5.99,0 11.08,0.6 15.28,1.8 4.19,1.2 8.09,2.39 11.68,3.59 7.19,2.39 14.38,3.59 21.56,3.59z"/>
  <path id="6" class="fil2" d="M8783.84 8843.09l-82.66 0 -93.44 0 -118.59 0c-10.78,-16.77 -17.97,-47.32 -21.56,-91.64 -4.79,-39.53 -7.19,-97.04 -7.19,-172.5l1.8 -197.67c1.2,-47.92 1.8,-123.99 1.8,-228.21l-5.39 -5.39 -177.9 0c-26.35,0 -43.72,-29.95 -52.11,-89.85 -4.79,-32.35 -7.19,-79.67 -7.19,-141.96l0 -23.36c2.4,-8.39 3.59,-21.56 3.59,-39.53l0 -35.94 1.8 -14.37 7.19 -7.19 32.35 1.8 35.94 0c52.71,0 92.84,-0.6 120.39,-1.8l116.8 0 32.35 0 61.09 0 77.27 0 77.27 0c15.57,1.2 37.74,1.8 66.49,1.8l44.92 0c4.8,-2.4 12.58,-3.59 23.36,-3.59 8.39,-2.4 16.17,-3.59 23.36,-3.59 22.76,0 40.13,1.2 52.11,3.59 23.96,2.4 41.93,3.59 53.91,3.59l46.72 -1.8 70.08 0c35.94,0 60.5,0.6 73.68,1.8l25.16 1.8c1.2,1.2 2.99,2.7 5.39,4.49 2.39,1.8 3.59,3.3 3.59,4.49l0 305.48c0,7.19 -3.89,14.97 -11.68,23.36 -7.79,8.39 -15.28,13.78 -22.46,16.17 -39.54,-8.39 -91.05,-12.58 -154.54,-12.58l-68.28 0c-17.97,0 -29.95,22.76 -35.94,68.28 -2.39,13.18 -3.59,32.35 -3.59,57.5l0 53.91c0,23.96 0.6,41.93 1.8,53.91l0 50.31c0,49.12 -2.4,94.64 -7.19,136.57 -2.39,31.15 -3.59,53.91 -3.59,68.28 -2.39,14.38 -3.59,34.14 -3.59,59.3 0,35.94 -1.2,65.89 -3.59,89.85 -1.2,37.14 -14.98,56.9 -41.33,59.3 -28.75,3.59 -45.52,5.39 -50.31,5.39l-88.05 0z"/>
  <g id="_2892707229184">
   <g>
    <g>
     <g>
      <path class="fil3" d="M8160.97 4007.46c-174.73,287.4 -425.89,528.19 -734.12,690.58 -18.33,21.76 -51.79,29.44 -92.43,-19.88 -8.23,-9.98 -19.94,-25.05 -33.87,-45 -68.45,-98.07 -191.31,-316.89 -205.5,-628.4 -10.61,-232.84 27.14,-468.31 108.11,-649.57 72.83,-163.03 181.09,-283.95 321.93,-325.23 95.55,-200.33 190.9,-411.35 190.9,-775.33 0,-97.48 -11.97,-183.93 -29.22,-262.56 -17.81,-81.16 -40.59,-152.8 -61.98,-219.76l-0.12 0.04c-6.88,-21.06 -9.91,-30.07 -12.78,-38.65 -28.14,-83.84 -49.45,-147.32 -49.45,-246.74 0,-66.42 15.07,-116.7 47.94,-152.67 34.01,-37.2 82.5,-54.94 148.13,-54.94 66.56,0 117.3,29 155.08,66.48 34.43,34.16 57.14,75.5 70.66,105.94l0.21 0.21 3.42 7.81c169.12,386.78 448.4,1025.52 448.4,1562.54l-0.21 0c0.61,354.11 -97.83,693.57 -275.09,985.13z"/>
      <path class="fil4" d="M7529.81 4929.98l-142.03 -272.53c611.57,-315.71 995.32,-946.85 994.14,-1635.12 0,-529.71 -280.17,-1166.87 -447.17,-1548.81 -23,-51.78 -76.75,-140.12 -176.56,-140.12 -99.8,0 -142.03,48.02 -142.03,153.56 0,105.54 26.87,168.91 59.49,268.71 44.14,138.15 94.07,295.52 94.07,498.95 0,389.59 -105.54,608.43 -207.31,821.41l-282.09 -122.8 5.74 -11.53c99.8,-205.34 176.61,-368.45 176.61,-687.09 0,-155.41 -40.31,-282.09 -78.71,-404.94 -38.4,-122.8 -76.75,-232.22 -76.75,-362.72 0,-276.35 180.37,-460.61 449.08,-460.61 197.69,0 368.51,120.89 458.7,324.37 178.46,403.03 474.04,1076.63 474.04,1671.62 1.24,802.75 -446.1,1538.98 -1159.22,1907.65l0 -0.01zm0 0z"/>
     </g>
     <g>
      <path class="fil3" d="M2106.92 4007.46c174.74,287.4 425.9,528.19 734.13,690.58 18.33,21.76 51.79,29.44 92.43,-19.88 8.23,-9.98 19.94,-25.05 33.87,-45 68.45,-98.07 191.32,-316.89 205.5,-628.4 10.61,-232.84 -27.14,-468.31 -108.11,-649.57 -72.83,-163.03 -181.09,-283.95 -321.93,-325.23 -95.54,-200.33 -190.89,-411.35 -190.89,-775.33 0,-97.48 11.97,-183.93 29.21,-262.56 17.81,-81.16 40.6,-152.8 61.98,-219.76l0.13 0.04c6.88,-21.06 9.91,-30.07 12.78,-38.65 28.14,-83.84 49.45,-147.32 49.45,-246.74 0,-66.42 -15.07,-116.7 -47.94,-152.67 -34.01,-37.2 -82.5,-54.94 -148.13,-54.94 -66.56,0 -117.3,29 -155.08,66.48 -34.43,34.16 -57.14,75.5 -70.66,105.94l-0.21 0.21 -3.42 7.81c-169.12,386.78 -448.4,1025.52 -448.4,1562.54l0.21 0c-0.61,354.11 97.83,693.57 275.09,985.13z"/>
      <path class="fil4" d="M2738.09 4929.98l142.03 -272.53c-611.57,-315.71 -995.33,-946.85 -994.15,-1635.12 0,-529.71 280.18,-1166.87 447.17,-1548.81 23,-51.78 76.75,-140.12 176.56,-140.12 99.8,0 142.03,48.02 142.03,153.56 0,105.54 -26.88,168.91 -59.49,268.71 -44.14,138.15 -94.07,295.52 -94.07,498.95 0,389.59 105.54,608.43 207.31,821.41l282.09 -122.8 -5.74 -11.53c-99.8,-205.34 -176.61,-368.45 -176.61,-687.09 0,-155.41 40.31,-282.09 78.72,-404.94 38.4,-122.8 76.75,-232.22 76.75,-362.72 0,-276.35 -180.37,-460.61 -449.08,-460.61 -197.69,0 -368.51,120.89 -458.7,324.37 -178.46,403.03 -474.04,1076.63 -474.04,1671.62 -1.24,802.75 446.1,1538.98 1159.22,1907.65l0 -0.01zm0 0z"/>
     </g>
     <g>
      <path class="fil2" d="M6449.92 6708.89c-96.89,238.22 -243.48,394.08 -439.31,466.69l-103.04 38.2 32.73 -104.92c40.53,-129.93 60.88,-263.27 71.11,-385.6 8.29,-99.04 9.91,-191.49 10.23,-269.25l-199.19 0c-3.14,275.46 -31.53,513.93 -113.98,703.26 -90.81,208.53 -244.79,355.43 -497.77,423.58l-50.81 13.69 -57.08 -194.57 0 -0.21c-20.56,-70.98 -54.81,-136.6 -100.13,-193.56 -45.28,-56.91 -101.5,-104.98 -166.02,-140.94 -60.67,-33.93 -109.79,-82.94 -143.76,-140.82 -33.93,-57.84 -52.74,-124.62 -52.8,-194.15l-0.21 0 0 -276.06 -198.96 0 0 276.06 -0.21 0c0.07,74.1 14.42,146.5 41.07,213.85 27.09,68.45 66.6,131.04 116.48,184.31l-44.13 90.37c-261.52,-23.7 -463.09,-192.48 -602.83,-437.58 -153.92,-269.98 -232.65,-634.1 -232.65,-995.16l0 -99.5 -198.95 0 0 99.5c0,31.19 0.36,58.3 1.06,81.32 0.78,25.55 2.06,52.89 3.81,81.91l-94.8 38.21c-154.52,-180.5 -274.49,-383.14 -355.73,-599.66 -80.67,-215 -123.04,-443.2 -123.04,-676.55l0.21 0c0.29,-211.06 34.89,-419.1 101.19,-616.33 66.41,-197.54 164.45,-384.26 291.52,-552.35l0.1 0.08 119.35 -159.17 -512.29 0 0.13 -54.05c0.51,-215.63 84,-412.72 221.06,-559.71 137.19,-147.14 327.98,-244.29 542.94,-259.87l131.31 -8.74 -42.37 -123.32 0 -0.21c-25.75,-75.49 -66.09,-149.31 -118.17,-218.86 -53.75,-71.78 -120.22,-139.24 -196.32,-199.57l-51.63 -40.94 50.36 -42.46c54.53,-45.98 118.99,-80.14 193.38,-102.72 72.75,-22.09 154.24,-33.01 244.49,-33.01l0 0.21c50.8,-0.18 101.09,5.42 149.88,16.58 49.29,11.27 97.1,28.07 142.47,50.15l-0.04 0.08 111.08 53.64 29.82 -118.06 0 -0.21c40.96,-160.28 128.11,-300.41 245.96,-406.45 117.8,-105.99 266.38,-177.9 430.22,-201.78l82.6 -12.04 -23.28 80.45c-21.44,74.12 -34.34,150.37 -38.63,227.26 -4.28,76.64 0.11,153.94 13.23,230.42l32.5 188.83 137.72 -133.94c175.93,-173.41 402.87,-267.32 634.06,-279.3 231.12,-11.98 466.59,58.07 659.63,212.56l80.78 64.65 -99.36 29.09c-92.48,27.07 -180.93,65.34 -263.47,113.7 -82.49,48.32 -159.15,106.8 -228.09,174.31l-171.9 168.17 240.06 2.48c315.27,2.99 604.08,107.47 825.79,277.47 226.59,173.74 383.62,415.99 428.44,688.93l10.26 62.5 -660.79 -0 149.65 167.11 0.09 -0.08c163.79,179.77 291.39,386.72 378.37,609.52 86.91,222.62 133.25,461.31 134.57,704.78l0.21 0.21c0,230.49 -42.36,457.15 -122.7,671.33 -80.95,215.82 -200.34,418.45 -353.67,599.06l-95.01 -36.74c0.95,-26.67 1.68,-52.74 2.14,-78.06 0.35,-19.17 0.54,-45.85 0.54,-80.83l0 -99.72 -199.01 0 0 99.72c0,384.97 -46.98,692.86 -140.51,922.82z"/>
      <path class="fil5" d="M5994.93 7124.91c361.95,-134.21 544.56,-582.62 544.56,-1338.83l0 -153.56 307.11 -0 0 153.56c0,55.36 -1.03,108.84 -2.89,160.78 297.55,-350.5 463.49,-784.91 463.49,-1235.55 -2.59,-473.09 -180.37,-928.47 -499.01,-1278.2l-230.31 -257.18 717.79 0c-84.45,-514.3 -591.11,-915.42 -1201.45,-921.22l-370.37 -3.82 264.83 -259.09c144.11,-141.13 320.77,-244.64 514.36,-301.32 -364.63,-291.81 -890.01,-264.6 -1222.53,63.37l-211.13 205.34 -49.87 -289.8c-27.55,-160.58 -18.39,-325.27 26.88,-481.75 -305.87,44.59 -554.9,268.65 -631.43,568.12l-46.05 182.28 -170.81 -82.48c-83.72,-40.76 -175.6,-61.79 -268.71,-61.45 -170.81,0 -305.14,40.31 -403.03,122.85 157.38,124.77 276.35,280.18 332.02,443.35l65.28 189.99 -201.52 13.44c-401.68,29.13 -713.01,363 -713.96,765.75l566.15 0 -184.2 245.66c-247.34,327.18 -381.39,726.05 -381.95,1136.17 0,456.21 165.92,890.98 465.69,1241.16 -3.36,-55.55 -5.08,-111.11 -5.08,-166.39l0 -153.56 307.05 0 0 153.56c0,662.57 269.62,1332.27 786.29,1379.11 -108.79,-116.18 -171.96,-270.93 -172.13,-434.9l0 -330.11 307.06 0 0 330.11c0.11,119.48 64.66,229.57 168.9,287.88 141.75,79 246.55,210.74 291.7,366.6l42.22 143.94c470.22,-126.68 571.94,-545.06 571.94,-1128.52l307.06 -0c0,175.97 -0.07,455.84 -83.95,724.73zm798.81 -696.48c-147.23,791.87 -577.16,1017.46 -971.7,1043.74 -142.47,189.75 -364,338.68 -708.51,386.64l-132.41 19.17 -117.06 -406.85c-3.51,-12.32 -7.76,-24.35 -12.71,-36.02 -73.96,25.88 -152.01,39.46 -231.03,39.84l0 0c-572.27,0 -919.29,-458.43 -1067.39,-1020.18 -541.8,-438.53 -851.79,-1070.01 -851.79,-1743.47 0.06,-376.78 97.89,-747.14 284,-1074.77l-284 0 0 -307.06c1.12,-477.93 316.67,-898.17 775.36,-1032.54 -71.24,-87.15 -157.71,-160.64 -255.27,-216.87l-136.29 -80.57 84.45 -134.38c157.38,-247.57 420.29,-378.07 760.01,-378.07 81.7,0.11 163,11.07 241.83,32.61 170.54,-392.86 558.17,-647 986.44,-646.78 46.22,0.22 92.38,3.43 138.2,9.61l226.48 28.79 -113.24 197.69c-39.98,70.51 -68.49,146.98 -84.45,226.48 552.14,-307.45 1247.39,-146.47 1608.3,372.28l161.2 230.3 -282.15 9.61c-99.69,3.26 -198.2,22.72 -291.7,57.57 631.42,172.73 1093.94,704.35 1093.94,1324.25l0 153.56 -378.07 -0.01c245.37,362.72 377,790.38 378.07,1228.27 0,655.06 -297.65,1277.39 -820.52,1717.13z"/>
     </g>
    </g>
    <path class="fil5" d="M5157.67 5615.78c-593.02,0 -1074.71,-412.59 -1074.71,-921.22 0,-508.57 481.69,-921.22 1074.71,-921.22 593.08,0 1074.77,412.65 1074.77,921.22 0,508.63 -481.69,921.22 -1074.77,921.22zm0 -1535.32c-424.11,0 -767.66,276.35 -767.66,614.11 0,337.81 343.55,614.16 767.66,614.16 424.17,0 767.72,-276.35 767.72,-614.16 0,-337.75 -343.55,-614.11 -767.72,-614.11zm0 0z"/>
   </g>
   <g>
    <path class="fil6" d="M5004.17 4541.07l-307.11 0 0 307.05 307.11 0 0 -307.05zm0 0z"/>
    <path class="fil6 str0" d="M5618.27 4541.07l-307.05 0 0 307.05 307.05 0 0 -307.05zm0 0z"/>
    <path class="fil6 str1" d="M4543.56 3159.24l-307.11 0 0 307.05 307.11 0 0 -307.06zm0 0z"/>
    <path class="fil6" d="M6078.88 3159.24l-307.06 0 0 307.05 307.06 0 0 -307.06zm0 0z"/>
   </g>
  </g>
 </g>
</svg>
