<svg xmlns="http://www.w3.org/2000/svg" xmlns:xlink="http://www.w3.org/1999/xlink" xmlns:lucid="lucid" width="1180" height="1100"><g transform="translate(-140 -360)" lucid:page-tab-id="9WNV4yBSIdue"><path d="M160 380h160v960H160z" stroke="#000" stroke-width="2" fill="#fff"/><use xlink:href="#a" transform="matrix(1,0,0,1,168,388) translate(56.525 475.59999999999997)"/><path d="M351.75 540H519" stroke="#000" stroke-width="2" fill="none"/><path d="M352.4 540l-15.14 14.85L322.4 540l14.86-14.85z"/><path d="M353.84 540l-16.58 16.26L321 540l16.26-16.26zm-30 0l13.43 13.44L351 540l-13.73-13.44zM520 541h-1v-2h1z"/><use xlink:href="#b" transform="matrix(1,0,0,1,354.50279407729266,544) translate(0 14.4)"/><use xlink:href="#c" transform="matrix(1,0,0,1,475.7869814264329,514.4000000000001) translate(0 14.4)"/><path d="M520 480h160v120H520z" stroke="#000" stroke-width="2" fill="#fff"/><use xlink:href="#d" transform="matrix(1,0,0,1,528,488) translate(38.55 55.6)"/><path d="M351.75 420H519" stroke="#000" stroke-width="2" fill="none"/><path d="M352.4 420l-15.14 14.85L322.4 420l14.86-14.85z"/><path d="M353.84 420l-16.58 16.26L321 420l16.26-16.26zm-30 0l13.43 13.44L351 420l-13.73-13.44zM520 421h-1v-2h1z"/><use xlink:href="#b" transform="matrix(1,0,0,1,355.4860076178164,423.99999999999994) translate(0 14.4)"/><use xlink:href="#b" transform="matrix(1,0,0,1,500.45362646355545,394.4) translate(0 14.4)"/><path d="M520 380h160v80H520z" stroke="#000" stroke-width="2" fill="#fff"/><use xlink:href="#e" transform="matrix(1,0,0,1,528,388) translate(4.599999999999994 35.6)"/><path d="M711.75 540H799" stroke="#000" stroke-width="2" fill="none"/><path d="M712.4 540l-15.14 14.85L682.4 540l14.86-14.85z"/><path d="M713.84 540l-16.58 16.26L681 540l16.26-16.26zm-30 0l13.43 13.44L711 540l-13.73-13.44zM800 541h-1v-2h1z"/><use xlink:href="#b" transform="matrix(1,0,0,1,710.1728529494635,514.4000000000001) translate(0 14.4)"/><use xlink:href="#f" transform="matrix(1,0,0,1,765.7182082935985,514.4000000000001) translate(0 14.4)"/><path d="M1140 500h160v80h-160z" stroke="#000" stroke-width="2" fill="#fff"/><use xlink:href="#g" transform="matrix(1,0,0,1,1148,508) translate(35.525 35.6)"/><path d="M351.75 860H519" stroke="#000" stroke-width="2" fill="none"/><path d="M352.4 860l-15.14 14.85L322.4 860l14.86-14.85z"/><path d="M353.84 860l-16.58 16.26L321 860l16.26-16.26zm-30 0l13.43 13.44L351 860l-13.73-13.44zM520 861h-1v-2h1z"/><use xlink:href="#b" transform="matrix(1,0,0,1,356.4692211583402,864) translate(0 14.4)"/><use xlink:href="#f" transform="matrix(1,0,0,1,474.9939835464485,834.4000000000001) translate(0 14.4)"/><path d="M520 800h160v120H520z" stroke="#000" stroke-width="2" fill="#fff"/><use xlink:href="#h" transform="matrix(1,0,0,1,528,808) translate(36.55 55.6)"/><path d="M681 860h87.25" stroke="#000" stroke-width="2" fill="none"/><path d="M681 861h-1v-2h1z"/><path d="M797.6 860l-14.86 14.85L767.6 860l15.14-14.85z" fill="#fff"/><path d="M799 860l-16.26 16.26L766.16 860l16.58-16.26zm-30 0l13.73 13.44L796.17 860l-13.44-13.44z"/><use xlink:href="#b" transform="matrix(1,0,0,1,696.5335995188145,864) translate(0 14.4)"/><use xlink:href="#c" transform="matrix(1,0,0,1,752.128504106597,834.4000000000001) translate(0 14.4)"/><path d="M800 820h160v80H800z" stroke="#000" stroke-width="2" fill="#fff"/><use xlink:href="#i" transform="matrix(1,0,0,1,808,828) translate(37.599999999999994 35.6)"/><path d="M351.75 680H519" stroke="#000" stroke-width="2" fill="none"/><path d="M352.4 680l-15.14 14.85L322.4 680l14.86-14.85z"/><path d="M353.84 680l-16.58 16.26L321 680l16.26-16.26zm-30 0l13.43 13.44L351 680l-13.73-13.44zM520 681h-1v-2h1z"/><use xlink:href="#b" transform="matrix(1,0,0,1,354.50279407729266,684) translate(0 14.4)"/><use xlink:href="#b" transform="matrix(1,0,0,1,495.6623147088451,654.4000000000001) translate(0 14.4)"/><path d="M520 620h160v120H520z" stroke="#000" stroke-width="2" fill="#fff"/><use xlink:href="#j" transform="matrix(1,0,0,1,528,628) translate(31.074999999999996 55.6)"/><path d="M711.75 497.44H740V440h59" stroke="#000" stroke-width="2" fill="none"/><path d="M712.4 497.44l-15.14 14.84-14.85-14.84 14.86-14.85z"/><path d="M713.84 497.44l-16.58 16.25L681 497.43l16.26-16.26zm-30 0l13.43 13.44L711 497.44 697.26 484zM800 441h-1v-2h1z"/><use xlink:href="#b" transform="matrix(1,0,0,1,717.1156617228312,471.8356098423203) translate(0 14.4)"/><use xlink:href="#b" transform="matrix(1,0,0,1,775.7577825467206,414.40000000000003) translate(0 14.4)"/><path d="M800 400h160v80H800z" stroke="#000" stroke-width="2" fill="#fff"/><use xlink:href="#k" transform="matrix(1,0,0,1,808,408) translate(7.074999999999989 35.6)"/><path d="M800 980h160v120H800z" stroke="#000" stroke-width="2" fill="#fff"/><use xlink:href="#l" transform="matrix(1,0,0,1,808,988) translate(55.225 55.6)"/><path d="M600 1125.48V1159" stroke="#000" stroke-width="2" fill="none"/><path d="M612.73 1124.48h-25.46l12.73-21.52z" fill="#fff"/><path d="M614.48 1125.48h-28.96L600 1101zm-25.45-2h21.94L600 1104.93zM601 1160h-2v-1h2z"/><path d="M520 1160h160v120H520z" stroke="#000" stroke-width="2" fill="#fff"/><use xlink:href="#m" transform="matrix(1,0,0,1,528,1168) translate(49.075 55.6)"/><path d="M711.75 1040H799" stroke="#000" stroke-width="2" fill="none"/><path d="M712.4 1040l-15.14 14.85L682.4 1040l14.86-14.85z"/><path d="M713.84 1040l-16.58 16.26L681 1040l16.26-16.26zm-30 0l13.43 13.44L711 1040l-13.73-13.44zM800 1041h-1v-2h1z"/><use xlink:href="#b" transform="matrix(1,0,0,1,698.9461096016189,1044.0000000000002) translate(0 14.4)"/><use xlink:href="#f" transform="matrix(1,0,0,1,768.3781970005095,1014.4000000000001) translate(0 14.4)"/><path d="M991.75 1017.36H1030V980h69" stroke="#000" stroke-width="2" fill="none"/><path d="M992.4 1017.36l-15.14 14.85-14.85-14.84 14.86-14.85z"/><path d="M993.84 1017.36l-16.58 16.26-16.26-16.26 16.26-16.26zm-30 0l13.43 13.44 13.72-13.44-13.73-13.44zM1100 981h-1v-2h1z"/><use xlink:href="#b" transform="matrix(1,0,0,1,1012,988.5935222268267) translate(0 14.4)"/><use xlink:href="#b" transform="matrix(1,0,0,1,1072.7086636721192,954.4) translate(0 14.4)"/><path d="M1100 940h160v80h-160z" stroke="#000" stroke-width="2" fill="#fff"/><use xlink:href="#n" transform="matrix(1,0,0,1,1108,948) translate(39.075 24.799999999999997)"/><use xlink:href="#o" transform="matrix(1,0,0,1,1108,948) translate(29.124999999999993 46.4)"/><path d="M711.75 1220H799" stroke="#000" stroke-width="2" fill="none"/><path d="M712.4 1220l-15.14 14.85L682.4 1220l14.86-14.85z"/><path d="M713.84 1220l-16.58 16.26L681 1220l16.26-16.26zm-30 0l13.43 13.44L711 1220l-13.73-13.44zM800 1221h-1v-2h1z"/><use xlink:href="#b" transform="matrix(1,0,0,1,720.5681878450105,1224.0000000000002) translate(0 14.4)"/><use xlink:href="#b" transform="matrix(1,0,0,1,778.8707645080904,1194.4) translate(0 14.4)"/><path d="M800 1180h160v80H800z" stroke="#000" stroke-width="2" fill="#fff"/><use xlink:href="#p" transform="matrix(1,0,0,1,808,1188) translate(35.225 24.799999999999997)"/><use xlink:href="#q" transform="matrix(1,0,0,1,808,1188) translate(49.574999999999996 46.4)"/><path d="M991.75 1058.74H1050V1120h89" stroke="#000" stroke-width="2" fill="none"/><path d="M992.4 1058.74l-15.14 14.85-14.85-14.86 14.86-14.85z"/><path d="M993.84 1058.74L977.26 1075 961 1058.73l16.26-16.26zm-30 0l13.43 13.44 13.72-13.44-13.73-13.44zM1140 1121h-1v-2h1z"/><use xlink:href="#b" transform="matrix(1,0,0,1,1031.0264015137193,1062.7372744745226) translate(0 14.4)"/><use xlink:href="#b" transform="matrix(1,0,0,1,1110.7094881171677,1094.4) translate(0 14.4)"/><path d="M1140 1080h160v80h-160z" stroke="#000" stroke-width="2" fill="#fff"/><use xlink:href="#r" transform="matrix(1,0,0,1,1148,1088) translate(51 24.799999999999997)"/><use xlink:href="#s" transform="matrix(1,0,0,1,1148,1088) translate(40.55 46.4)"/><path d="M1220 605.48V760h-40v179" stroke="#000" stroke-width="2" fill="none"/><path d="M1232.73 604.48h-25.46l12.73-21.52z" fill="#fff"/><path d="M1234.48 605.48h-28.96L1220 581zm-25.45-2h21.94L1220 584.93zM1181 940h-2v-1h2z"/><path d="M600 921v33.52" stroke="#000" stroke-width="2" fill="none"/><path d="M601 921h-2v-1h2z"/><path d="M600 977.04l-12.73-21.52h25.46z" fill="#fff"/><path d="M600 979l-14.48-24.48h28.96zm-10.97-22.48L600 975.07l10.97-18.55z"/><path d="M600 741v33.52" stroke="#000" stroke-width="2" fill="none"/><path d="M601 741h-2v-1h2z"/><path d="M600 797.04l-12.73-21.52h25.46z" fill="#fff"/><path d="M600 799l-14.48-24.48h28.96zm-10.97-22.48L600 795.07l10.97-18.55z"/><path d="M681 823.06h40V578.4h-9.25" stroke="#000" stroke-width="2" fill="none"/><path d="M681 824.06h-1v-2h1z"/><path d="M712.4 578.4l-15.14 14.84-14.85-14.85 14.86-14.86z" fill="#fff"/><path d="M713.84 578.4l-16.58 16.25L681 578.4l16.26-16.26zm-30 0l13.43 13.43L711 578.4l-13.73-13.45z"/><use xlink:href="#t" transform="matrix(1,0,0,1,729.0000000000001,689.9275588918039) translate(0 14.4)"/><use xlink:href="#b" transform="matrix(1,0,0,1,695.6190992224344,797.4625370808735) translate(0 14.4)"/><use xlink:href="#f" transform="matrix(1,0,0,1,729,572.7198562635367) translate(0 14.4)"/><path d="M1260.38 1161v59H1180v40.5" stroke="#000" stroke-width="2" fill="none"/><path d="M1261.38 1161h-2v-1h2zM1180 1275.76l-4.64-14.26h9.28z"/><path d="M1180 1279l-6-18.5h12zm-3.26-16.5l3.26 10.03 3.26-10.03z"/><path d="M1100 1280h128l32 32v128h-160z" stroke="#d9be60" stroke-width="2" fill="#ffdf71"/><path d="M1228 1280v32h32" fill="#d9be60"/><use xlink:href="#u" transform="matrix(1,0,0,1,1105,1285) translate(42.05 67.8)"/><use xlink:href="#v" transform="matrix(1,0,0,1,1105,1285) translate(45.05 89.4)"/><path d="M520 980h160v120H520z" stroke="#000" stroke-width="2" fill="#fff"/><use xlink:href="#w" transform="matrix(1,0,0,1,528,988) translate(47.25 55.6)"/><path d="M351.75 1040H519" stroke="#000" stroke-width="2" fill="none"/><path d="M352.4 1040l-15.14 14.85L322.4 1040l14.86-14.85z"/><path d="M353.84 1040l-16.58 16.26L321 1040l16.26-16.26zm-30 0l13.43 13.44L351 1040l-13.73-13.44zM520 1041h-1v-2h1z"/><use xlink:href="#b" transform="matrix(1,0,0,1,356.4692211583402,1044.0000000000002) translate(0 14.4)"/><use xlink:href="#f" transform="matrix(1,0,0,1,474.9939835464485,1014.4000000000001) translate(0 14.4)"/><path d="M800 500h160v80H800z" stroke="#000" stroke-width="2" fill="#fff"/><use xlink:href="#x" transform="matrix(1,0,0,1,808,508) translate(43.55 35.6)"/><path d="M961 540h147.25" stroke="#000" stroke-width="2" fill="none"/><path d="M961 541h-1v-2h1zM1137.6 540l-14.86 14.85L1107.6 540l15.14-14.85z"/><path d="M1139 540l-16.26 16.26-16.58-16.26 16.58-16.26zm-30 0l13.73 13.44 13.44-13.44-13.44-13.44z"/><use xlink:href="#b" transform="matrix(1,0,0,1,968.3333333333334,544) translate(0 14.4)"/><use xlink:href="#f" transform="matrix(1,0,0,1,1082.5,514.4000000000001) translate(0 14.4)"/><path d="M1220 605.48V830h62.67v249" stroke="#000" stroke-width="2" fill="none"/><path d="M1232.73 604.48h-25.46l12.73-21.52z" fill="#fff"/><path d="M1234.48 605.48h-28.96L1220 581zm-25.45-2h21.94L1220 584.93zM1283.67 1080h-2v-1h2z"/><path d="M960 700h160v80H960z" stroke="#000" stroke-width="2" fill="#fff"/><use xlink:href="#y" transform="matrix(1,0,0,1,968,708) translate(53.025 24.799999999999997)"/><use xlink:href="#z" transform="matrix(1,0,0,1,968,708) translate(35.525 46.4)"/><path d="M1040 699v-59h180v-34.52" stroke="#000" stroke-width="2" fill="none"/><path d="M1041 700h-2v-1h2z"/><path d="M1232.73 604.48h-25.46l12.73-21.52z" fill="#fff"/><path d="M1234.48 605.48h-28.96L1220 581zm-25.45-2h21.94L1220 584.93z"/><defs><path d="M194-120c59 52 2 134-86 124-53-6-90-18-98-63l31-7c8 30 29 43 70 43 46 0 84-17 71-62-32-43-135-20-137-98-3-89 178-90 191-16l-30 9c-8-48-127-53-127 5 0 53 81 35 115 65" id="A"/><path d="M50-231l6-30h32l-6 30H50zM6 0l37-190h31L37 0H6" id="B"/><path d="M51-54c-9 22 5 41 31 30L79-1C43 14 10-4 19-52l22-115H19l5-23h22l19-43h21l-9 43h35l-4 23H73" id="C"/><path d="M111-194c62-3 86 47 72 106H45c-7 38 6 69 45 68 27-1 43-14 53-32l24 11C152-15 129 4 87 4 38 3 12-23 12-71c0-70 32-119 99-123zm44 81c14-66-71-72-95-28-4 8-8 17-11 28h106" id="D"/><g id="a"><use transform="matrix(0.05,0,0,0.05,0,0)" xlink:href="#A"/><use transform="matrix(0.05,0,0,0.05,12,0)" xlink:href="#B"/><use transform="matrix(0.05,0,0,0.05,15.949999999999998,0)" xlink:href="#C"/><use transform="matrix(0.05,0,0,0.05,20.95,0)" xlink:href="#D"/></g><path d="M27 0v-27h64v-190l-56 39v-29l58-41h29v221h61V0H27" id="E"/><use transform="matrix(0.05,0,0,0.05,0,0)" xlink:href="#E" id="b"/><path d="M33 0v-38h34V0H33" id="F"/><path d="M80-196l47-18 7 23-49 13 32 44-20 13-27-46-27 45-21-12 33-44-49-13 8-23 47 19-2-53h23" id="G"/><g id="c"><use transform="matrix(0.05,0,0,0.05,0,0)" xlink:href="#E"/><use transform="matrix(0.05,0,0,0.05,10,0)" xlink:href="#F"/><use transform="matrix(0.05,0,0,0.05,15,0)" xlink:href="#F"/><use transform="matrix(0.05,0,0,0.05,20,0)" xlink:href="#G"/></g><path d="M212-179c-10-28-35-45-73-45-59 0-87 40-87 99 0 60 29 101 89 101 43 0 62-24 78-52l27 14C228-24 195 4 139 4 59 4 22-46 18-125c-6-104 99-153 187-111 19 9 31 26 39 46" id="H"/><path d="M106-169C34-169 62-67 57 0H25v-261h32l-1 103c12-21 28-36 61-36 89 0 53 116 60 194h-32v-121c2-32-8-49-39-48" id="I"/><path d="M141-36C126-15 110 5 73 4 37 3 15-17 15-53c-1-64 63-63 125-63 3-35-9-54-41-54-24 1-41 7-42 31l-33-3c5-37 33-52 76-52 45 0 72 20 72 64v82c-1 20 7 32 28 27v20c-31 9-61-2-59-35zM48-53c0 20 12 33 32 33 41-3 63-29 60-74-43 2-92-5-92 41" id="J"/><path d="M117-194c89-4 53 116 60 194h-32v-121c0-31-8-49-39-48C34-167 62-67 57 0H25l-1-190h30c1 10-1 24 2 32 11-22 29-35 61-36" id="K"/><path d="M100-194c63 0 86 42 84 106H49c0 40 14 67 53 68 26 1 43-12 49-29l28 8c-11 28-37 45-77 45C44 4 14-33 15-96c1-61 26-98 85-98zm52 81c6-60-76-77-97-28-3 7-6 17-6 28h103" id="L"/><path d="M24 0v-261h32V0H24" id="M"/><g id="d"><use transform="matrix(0.05,0,0,0.05,0,0)" xlink:href="#H"/><use transform="matrix(0.05,0,0,0.05,12.950000000000001,0)" xlink:href="#I"/><use transform="matrix(0.05,0,0,0.05,22.950000000000003,0)" xlink:href="#J"/><use transform="matrix(0.05,0,0,0.05,32.95,0)" xlink:href="#K"/><use transform="matrix(0.05,0,0,0.05,42.95,0)" xlink:href="#K"/><use transform="matrix(0.05,0,0,0.05,52.95,0)" xlink:href="#L"/><use transform="matrix(0.05,0,0,0.05,62.95,0)" xlink:href="#M"/></g><path d="M63-220v92h138v28H63V0H30v-248h175v28H63" id="N"/><path d="M24-231v-30h32v30H24zM24 0v-190h32V0H24" id="O"/><path d="M114-163C36-179 61-72 57 0H25l-1-190h30c1 12-1 29 2 39 6-27 23-49 58-41v29" id="P"/><path d="M115-194c53 0 69 39 70 98 0 66-23 100-70 100C84 3 66-7 56-30L54 0H23l1-261h32v101c10-23 28-34 59-34zm-8 174c40 0 45-34 45-75 0-40-5-75-45-74-42 0-51 32-51 76 0 43 10 73 51 73" id="Q"/><path d="M135-143c-3-34-86-38-87 0 15 53 115 12 119 90S17 21 10-45l28-5c4 36 97 45 98 0-10-56-113-15-118-90-4-57 82-63 122-42 12 7 21 19 24 35" id="R"/><path d="M185-189c-5-48-123-54-124 2 14 75 158 14 163 119 3 78-121 87-175 55-17-10-28-26-33-46l33-7c5 56 141 63 141-1 0-78-155-14-162-118-5-82 145-84 179-34 5 7 8 16 11 25" id="S"/><path d="M59-47c-2 24 18 29 38 22v24C64 9 27 4 27-40v-127H5v-23h24l9-43h21v43h35v23H59v120" id="T"/><path d="M177-190C167-65 218 103 67 71c-23-6-38-20-44-43l32-5c15 47 100 32 89-28v-30C133-14 115 1 83 1 29 1 15-40 15-95c0-56 16-97 71-98 29-1 48 16 59 35 1-10 0-23 2-32h30zM94-22c36 0 50-32 50-73 0-42-14-75-50-75-39 0-46 34-46 75s6 73 46 73" id="U"/><g id="e"><use transform="matrix(0.05,0,0,0.05,0,0)" xlink:href="#N"/><use transform="matrix(0.05,0,0,0.05,10.950000000000001,0)" xlink:href="#O"/><use transform="matrix(0.05,0,0,0.05,14.9,0)" xlink:href="#P"/><use transform="matrix(0.05,0,0,0.05,20.85,0)" xlink:href="#L"/><use transform="matrix(0.05,0,0,0.05,30.85,0)" xlink:href="#Q"/><use transform="matrix(0.05,0,0,0.05,40.85,0)" xlink:href="#J"/><use transform="matrix(0.05,0,0,0.05,50.85,0)" xlink:href="#R"/><use transform="matrix(0.05,0,0,0.05,59.85,0)" xlink:href="#L"/><use transform="matrix(0.05,0,0,0.05,69.85,0)" xlink:href="#S"/><use transform="matrix(0.05,0,0,0.05,81.85,0)" xlink:href="#L"/><use transform="matrix(0.05,0,0,0.05,91.85,0)" xlink:href="#T"/><use transform="matrix(0.05,0,0,0.05,96.85,0)" xlink:href="#T"/><use transform="matrix(0.05,0,0,0.05,101.85,0)" xlink:href="#O"/><use transform="matrix(0.05,0,0,0.05,105.80000000000001,0)" xlink:href="#K"/><use transform="matrix(0.05,0,0,0.05,115.80000000000001,0)" xlink:href="#U"/><use transform="matrix(0.05,0,0,0.05,125.80000000000001,0)" xlink:href="#R"/></g><path d="M101-251c68 0 85 55 85 127S166 4 100 4C33 4 14-52 14-124c0-73 17-127 87-127zm-1 229c47 0 54-49 54-102s-4-102-53-102c-51 0-55 48-55 102 0 53 5 102 54 102" id="V"/><g id="f"><use transform="matrix(0.05,0,0,0.05,0,0)" xlink:href="#V"/><use transform="matrix(0.05,0,0,0.05,10,0)" xlink:href="#F"/><use transform="matrix(0.05,0,0,0.05,15,0)" xlink:href="#F"/><use transform="matrix(0.05,0,0,0.05,20,0)" xlink:href="#G"/></g><path d="M240 0l2-218c-23 76-54 145-80 218h-23L58-218 59 0H30v-248h44l77 211c21-75 51-140 76-211h43V0h-30" id="W"/><g id="g"><use transform="matrix(0.05,0,0,0.05,0,0)" xlink:href="#W"/><use transform="matrix(0.05,0,0,0.05,14.950000000000001,0)" xlink:href="#L"/><use transform="matrix(0.05,0,0,0.05,24.950000000000003,0)" xlink:href="#R"/><use transform="matrix(0.05,0,0,0.05,33.95,0)" xlink:href="#R"/><use transform="matrix(0.05,0,0,0.05,42.95,0)" xlink:href="#J"/><use transform="matrix(0.05,0,0,0.05,52.95,0)" xlink:href="#U"/><use transform="matrix(0.05,0,0,0.05,62.95,0)" xlink:href="#L"/></g><path d="M140-251c81 0 123 46 123 126C263-46 219 4 140 4 59 4 17-45 17-125s42-126 123-126zm0 227c63 0 89-41 89-101s-29-99-89-99c-61 0-89 39-89 99S79-25 140-24" id="X"/><path d="M115-194c55 1 70 41 70 98S169 2 115 4C84 4 66-9 55-30l1 105H24l-1-265h31l2 30c10-21 28-34 59-34zm-8 174c40 0 45-34 45-75s-6-73-45-74c-42 0-51 32-51 76 0 43 10 73 51 73" id="Y"/><path d="M100-194c62-1 85 37 85 99 1 63-27 99-86 99S16-35 15-95c0-66 28-99 85-99zM99-20c44 1 53-31 53-75 0-43-8-75-51-75s-53 32-53 75 10 74 51 75" id="Z"/><g id="h"><use transform="matrix(0.05,0,0,0.05,0,0)" xlink:href="#X"/><use transform="matrix(0.05,0,0,0.05,14,0)" xlink:href="#Y"/><use transform="matrix(0.05,0,0,0.05,24,0)" xlink:href="#L"/><use transform="matrix(0.05,0,0,0.05,34,0)" xlink:href="#P"/><use transform="matrix(0.05,0,0,0.05,39.95,0)" xlink:href="#J"/><use transform="matrix(0.05,0,0,0.05,49.95,0)" xlink:href="#T"/><use transform="matrix(0.05,0,0,0.05,54.95,0)" xlink:href="#Z"/><use transform="matrix(0.05,0,0,0.05,64.95,0)" xlink:href="#P"/></g><path d="M30-248c87 1 191-15 191 75 0 78-77 80-158 76V0H30v-248zm33 125c57 0 124 11 124-50 0-59-68-47-124-48v98" id="aa"/><path d="M108 0H70L1-190h34L89-25l56-165h34" id="ab"/><g id="i"><use transform="matrix(0.05,0,0,0.05,0,0)" xlink:href="#aa"/><use transform="matrix(0.05,0,0,0.05,12,0)" xlink:href="#P"/><use transform="matrix(0.05,0,0,0.05,17.95,0)" xlink:href="#O"/><use transform="matrix(0.05,0,0,0.05,21.9,0)" xlink:href="#ab"/><use transform="matrix(0.05,0,0,0.05,30.899999999999995,0)" xlink:href="#O"/><use transform="matrix(0.05,0,0,0.05,34.85,0)" xlink:href="#M"/><use transform="matrix(0.05,0,0,0.05,38.800000000000004,0)" xlink:href="#L"/><use transform="matrix(0.05,0,0,0.05,48.800000000000004,0)" xlink:href="#U"/><use transform="matrix(0.05,0,0,0.05,58.800000000000004,0)" xlink:href="#L"/></g><path d="M233-177c-1 41-23 64-60 70L243 0h-38l-65-103H63V0H30v-248c88 3 205-21 203 71zM63-129c60-2 137 13 137-47 0-61-80-42-137-45v92" id="ac"/><g id="j"><use transform="matrix(0.05,0,0,0.05,0,0)" xlink:href="#ac"/><use transform="matrix(0.05,0,0,0.05,12.950000000000001,0)" xlink:href="#L"/><use transform="matrix(0.05,0,0,0.05,22.950000000000003,0)" xlink:href="#U"/><use transform="matrix(0.05,0,0,0.05,32.95,0)" xlink:href="#O"/><use transform="matrix(0.05,0,0,0.05,36.900000000000006,0)" xlink:href="#R"/><use transform="matrix(0.05,0,0,0.05,45.900000000000006,0)" xlink:href="#T"/><use transform="matrix(0.05,0,0,0.05,50.900000000000006,0)" xlink:href="#P"/><use transform="matrix(0.05,0,0,0.05,56.85,0)" xlink:href="#J"/><use transform="matrix(0.05,0,0,0.05,66.85000000000001,0)" xlink:href="#K"/><use transform="matrix(0.05,0,0,0.05,76.85000000000001,0)" xlink:href="#T"/></g><path d="M30-248c118-7 216 8 213 122C240-48 200 0 122 0H30v-248zM63-27c89 8 146-16 146-99s-60-101-146-95v194" id="ad"/><path d="M101-234c-31-9-42 10-38 44h38v23H63V0H32v-167H5v-23h27c-7-52 17-82 69-68v24" id="ae"/><path d="M84 4C-5 8 30-112 23-190h32v120c0 31 7 50 39 49 72-2 45-101 50-169h31l1 190h-30c-1-10 1-25-2-33-11 22-28 36-60 37" id="af"/><g id="k"><use transform="matrix(0.05,0,0,0.05,0,0)" xlink:href="#ad"/><use transform="matrix(0.05,0,0,0.05,12.950000000000001,0)" xlink:href="#L"/><use transform="matrix(0.05,0,0,0.05,22.950000000000003,0)" xlink:href="#ae"/><use transform="matrix(0.05,0,0,0.05,27.950000000000003,0)" xlink:href="#J"/><use transform="matrix(0.05,0,0,0.05,37.95,0)" xlink:href="#af"/><use transform="matrix(0.05,0,0,0.05,47.95,0)" xlink:href="#M"/><use transform="matrix(0.05,0,0,0.05,51.900000000000006,0)" xlink:href="#T"/><use transform="matrix(0.05,0,0,0.05,56.900000000000006,0)" xlink:href="#W"/><use transform="matrix(0.05,0,0,0.05,71.85000000000001,0)" xlink:href="#L"/><use transform="matrix(0.05,0,0,0.05,81.85000000000001,0)" xlink:href="#R"/><use transform="matrix(0.05,0,0,0.05,90.85000000000001,0)" xlink:href="#R"/><use transform="matrix(0.05,0,0,0.05,99.85000000000001,0)" xlink:href="#J"/><use transform="matrix(0.05,0,0,0.05,109.85000000000001,0)" xlink:href="#U"/><use transform="matrix(0.05,0,0,0.05,119.85000000000001,0)" xlink:href="#L"/></g><path d="M137 0h-34L2-248h35l83 218 83-218h36" id="ag"/><g id="l"><use transform="matrix(0.05,0,0,0.05,0,0)" xlink:href="#ag"/><use transform="matrix(0.05,0,0,0.05,11.65,0)" xlink:href="#O"/><use transform="matrix(0.05,0,0,0.05,15.600000000000001,0)" xlink:href="#R"/><use transform="matrix(0.05,0,0,0.05,24.6,0)" xlink:href="#O"/><use transform="matrix(0.05,0,0,0.05,28.55,0)" xlink:href="#T"/></g><g id="m"><use transform="matrix(0.05,0,0,0.05,0,0)" xlink:href="#H"/><use transform="matrix(0.05,0,0,0.05,12.950000000000001,0)" xlink:href="#M"/><use transform="matrix(0.05,0,0,0.05,16.900000000000002,0)" xlink:href="#O"/><use transform="matrix(0.05,0,0,0.05,20.85,0)" xlink:href="#L"/><use transform="matrix(0.05,0,0,0.05,30.85,0)" xlink:href="#K"/><use transform="matrix(0.05,0,0,0.05,40.85,0)" xlink:href="#T"/></g><path d="M160-131c35 5 61 23 61 61C221 17 115-2 30 0v-248c76 3 177-17 177 60 0 33-19 50-47 57zm-97-11c50-1 110 9 110-42 0-47-63-36-110-37v79zm0 115c55-2 124 14 124-45 0-56-70-42-124-44v89" id="ah"/><path d="M206 0h-36l-40-164L89 0H53L-1-190h32L70-26l43-164h34l41 164 42-164h31" id="ai"/><g id="n"><use transform="matrix(0.05,0,0,0.05,0,0)" xlink:href="#ah"/><use transform="matrix(0.05,0,0,0.05,12,0)" xlink:href="#P"/><use transform="matrix(0.05,0,0,0.05,17.95,0)" xlink:href="#Z"/><use transform="matrix(0.05,0,0,0.05,27.950000000000003,0)" xlink:href="#ai"/><use transform="matrix(0.05,0,0,0.05,40.9,0)" xlink:href="#R"/><use transform="matrix(0.05,0,0,0.05,49.9,0)" xlink:href="#L"/><use transform="matrix(0.05,0,0,0.05,59.900000000000006,0)" xlink:href="#P"/></g><g id="o"><use transform="matrix(0.05,0,0,0.05,0,0)" xlink:href="#N"/><use transform="matrix(0.05,0,0,0.05,10.950000000000001,0)" xlink:href="#O"/><use transform="matrix(0.05,0,0,0.05,14.9,0)" xlink:href="#K"/><use transform="matrix(0.05,0,0,0.05,24.900000000000002,0)" xlink:href="#U"/><use transform="matrix(0.05,0,0,0.05,34.900000000000006,0)" xlink:href="#L"/><use transform="matrix(0.05,0,0,0.05,44.900000000000006,0)" xlink:href="#P"/><use transform="matrix(0.05,0,0,0.05,50.85000000000001,0)" xlink:href="#Y"/><use transform="matrix(0.05,0,0,0.05,60.85,0)" xlink:href="#P"/><use transform="matrix(0.05,0,0,0.05,66.80000000000001,0)" xlink:href="#O"/><use transform="matrix(0.05,0,0,0.05,70.75000000000001,0)" xlink:href="#K"/><use transform="matrix(0.05,0,0,0.05,80.75000000000001,0)" xlink:href="#T"/></g><path d="M85-194c31 0 48 13 60 33l-1-100h32l1 261h-30c-2-10 0-23-3-31C134-8 116 4 85 4 32 4 16-35 15-94c0-66 23-100 70-100zm9 24c-40 0-46 34-46 75 0 40 6 74 45 74 42 0 51-32 51-76 0-42-9-74-50-73" id="aj"/><g id="p"><use transform="matrix(0.05,0,0,0.05,0,0)" xlink:href="#ag"/><use transform="matrix(0.05,0,0,0.05,10.65,0)" xlink:href="#J"/><use transform="matrix(0.05,0,0,0.05,20.65,0)" xlink:href="#M"/><use transform="matrix(0.05,0,0,0.05,24.599999999999998,0)" xlink:href="#O"/><use transform="matrix(0.05,0,0,0.05,28.549999999999997,0)" xlink:href="#aj"/><use transform="matrix(0.05,0,0,0.05,38.55,0)" xlink:href="#J"/><use transform="matrix(0.05,0,0,0.05,48.55,0)" xlink:href="#T"/><use transform="matrix(0.05,0,0,0.05,53.54999999999999,0)" xlink:href="#L"/><use transform="matrix(0.05,0,0,0.05,63.54999999999999,0)" xlink:href="#aj"/></g><path d="M30 0v-248h187v28H63v79h144v27H63v87h162V0H30" id="ak"/><path d="M210-169c-67 3-38 105-44 169h-31v-121c0-29-5-50-35-48C34-165 62-65 56 0H25l-1-190h30c1 10-1 24 2 32 10-44 99-50 107 0 11-21 27-35 58-36 85-2 47 119 55 194h-31v-121c0-29-5-49-35-48" id="al"/><g id="q"><use transform="matrix(0.05,0,0,0.05,0,0)" xlink:href="#ak"/><use transform="matrix(0.05,0,0,0.05,12,0)" xlink:href="#al"/><use transform="matrix(0.05,0,0,0.05,26.950000000000003,0)" xlink:href="#J"/><use transform="matrix(0.05,0,0,0.05,36.95,0)" xlink:href="#O"/><use transform="matrix(0.05,0,0,0.05,40.900000000000006,0)" xlink:href="#M"/></g><g id="r"><use transform="matrix(0.05,0,0,0.05,0,0)" xlink:href="#aa"/><use transform="matrix(0.05,0,0,0.05,12,0)" xlink:href="#J"/><use transform="matrix(0.05,0,0,0.05,22,0)" xlink:href="#U"/><use transform="matrix(0.05,0,0,0.05,32,0)" xlink:href="#L"/></g><path d="M205 0l-28-72H64L36 0H1l101-248h38L239 0h-34zm-38-99l-47-123c-12 45-31 82-46 123h93" id="am"/><path d="M179-190L93 31C79 59 56 82 12 73V49c39 6 53-20 64-50L1-190h34L92-34l54-156h33" id="an"/><path d="M96-169c-40 0-48 33-48 73s9 75 48 75c24 0 41-14 43-38l32 2c-6 37-31 61-74 61-59 0-76-41-82-99-10-93 101-131 147-64 4 7 5 14 7 22l-32 3c-4-21-16-35-41-35" id="ao"/><g id="s"><use transform="matrix(0.05,0,0,0.05,0,0)" xlink:href="#am"/><use transform="matrix(0.05,0,0,0.05,12,0)" xlink:href="#K"/><use transform="matrix(0.05,0,0,0.05,22,0)" xlink:href="#J"/><use transform="matrix(0.05,0,0,0.05,32,0)" xlink:href="#M"/><use transform="matrix(0.05,0,0,0.05,35.95,0)" xlink:href="#an"/><use transform="matrix(0.05,0,0,0.05,44.95,0)" xlink:href="#T"/><use transform="matrix(0.05,0,0,0.05,49.95,0)" xlink:href="#O"/><use transform="matrix(0.05,0,0,0.05,53.900000000000006,0)" xlink:href="#ao"/></g><g id="t"><use transform="matrix(0.05,0,0,0.05,0,0)" xlink:href="#al"/><use transform="matrix(0.05,0,0,0.05,14.950000000000001,0)" xlink:href="#L"/><use transform="matrix(0.05,0,0,0.05,24.950000000000003,0)" xlink:href="#al"/><use transform="matrix(0.05,0,0,0.05,39.900000000000006,0)" xlink:href="#Q"/><use transform="matrix(0.05,0,0,0.05,49.900000000000006,0)" xlink:href="#L"/><use transform="matrix(0.05,0,0,0.05,59.900000000000006,0)" xlink:href="#P"/></g><path d="M141 0L90-78 38 0H4l68-98-65-92h35l48 74 47-74h35l-64 92 68 98h-35" id="ap"/><g id="u"><use transform="matrix(0.05,0,0,0.05,0,0)" xlink:href="#ak"/><use transform="matrix(0.05,0,0,0.05,12,0)" xlink:href="#ap"/><use transform="matrix(0.05,0,0,0.05,21,0)" xlink:href="#T"/><use transform="matrix(0.05,0,0,0.05,26,0)" xlink:href="#L"/><use transform="matrix(0.05,0,0,0.05,36,0)" xlink:href="#P"/><use transform="matrix(0.05,0,0,0.05,41.95,0)" xlink:href="#K"/><use transform="matrix(0.05,0,0,0.05,51.95,0)" xlink:href="#J"/><use transform="matrix(0.05,0,0,0.05,61.95,0)" xlink:href="#M"/></g><g id="v"><use transform="matrix(0.05,0,0,0.05,0,0)" xlink:href="#S"/><use transform="matrix(0.05,0,0,0.05,12,0)" xlink:href="#L"/><use transform="matrix(0.05,0,0,0.05,22,0)" xlink:href="#P"/><use transform="matrix(0.05,0,0,0.05,27.950000000000003,0)" xlink:href="#ab"/><use transform="matrix(0.05,0,0,0.05,36.95,0)" xlink:href="#O"/><use transform="matrix(0.05,0,0,0.05,40.900000000000006,0)" xlink:href="#ao"/><use transform="matrix(0.05,0,0,0.05,49.900000000000006,0)" xlink:href="#L"/></g><g id="w"><use transform="matrix(0.05,0,0,0.05,0,0)" xlink:href="#ag"/><use transform="matrix(0.05,0,0,0.05,11.65,0)" xlink:href="#O"/><use transform="matrix(0.05,0,0,0.05,15.600000000000001,0)" xlink:href="#R"/><use transform="matrix(0.05,0,0,0.05,24.6,0)" xlink:href="#O"/><use transform="matrix(0.05,0,0,0.05,28.55,0)" xlink:href="#T"/><use transform="matrix(0.05,0,0,0.05,33.55,0)" xlink:href="#Z"/><use transform="matrix(0.05,0,0,0.05,43.55,0)" xlink:href="#P"/></g><path d="M127-220V0H93v-220H8v-28h204v28h-85" id="aq"/><g id="x"><use transform="matrix(0.05,0,0,0.05,0,0)" xlink:href="#aq"/><use transform="matrix(0.05,0,0,0.05,10.950000000000001,0)" xlink:href="#I"/><use transform="matrix(0.05,0,0,0.05,20.950000000000003,0)" xlink:href="#P"/><use transform="matrix(0.05,0,0,0.05,26.900000000000002,0)" xlink:href="#L"/><use transform="matrix(0.05,0,0,0.05,36.900000000000006,0)" xlink:href="#J"/><use transform="matrix(0.05,0,0,0.05,46.900000000000006,0)" xlink:href="#aj"/></g><g id="y"><use transform="matrix(0.05,0,0,0.05,0,0)" xlink:href="#H"/><use transform="matrix(0.05,0,0,0.05,12.950000000000001,0)" xlink:href="#I"/><use transform="matrix(0.05,0,0,0.05,22.950000000000003,0)" xlink:href="#J"/><use transform="matrix(0.05,0,0,0.05,32.95,0)" xlink:href="#T"/></g><g id="z"><use transform="matrix(0.05,0,0,0.05,0,0)" xlink:href="#W"/><use transform="matrix(0.05,0,0,0.05,14.950000000000001,0)" xlink:href="#L"/><use transform="matrix(0.05,0,0,0.05,24.950000000000003,0)" xlink:href="#R"/><use transform="matrix(0.05,0,0,0.05,33.95,0)" xlink:href="#R"/><use transform="matrix(0.05,0,0,0.05,42.95,0)" xlink:href="#J"/><use transform="matrix(0.05,0,0,0.05,52.95,0)" xlink:href="#U"/><use transform="matrix(0.05,0,0,0.05,62.95,0)" xlink:href="#L"/></g></defs></g></svg>